<?xml version="1.0" encoding="UTF-8"?>
<svg version="1.1" xmlns="http://www.w3.org/2000/svg" width="500" height="500">
<path d="M0 0 C165 0 330 0 500 0 C500 165 500 330 500 500 C335 500 170 500 0 500 C0 335 0 170 0 0 Z " fill="#F7F6F6" transform="translate(0,0)"/>
<path d="M0 0 C1.60198242 0.00676758 1.60198242 0.00676758 3.23632812 0.01367188 C5.80345195 0.02518364 8.3704401 0.0414293 10.9375 0.0625 C11.41740975 1.47326427 11.89477185 2.88489531 12.37109375 4.296875 C12.77026001 5.47588379 12.77026001 5.47588379 13.17749023 6.67871094 C13.87884229 8.87851868 14.46427576 11.0675097 15 13.3125 C15.82068338 16.95412795 15.82068338 16.95412795 17.0625 19.875 C17.9375 22.0625 17.9375 22.0625 17.9375 25.0625 C14.12540397 26.81338093 10.31274937 28.56304232 6.5 30.3125 C5.43072266 30.80363281 4.36144531 31.29476563 3.25976562 31.80078125 C-5.29064972 35.72299012 -13.87686855 39.5534397 -22.5 43.3125 C-39.72881988 50.83920428 -39.72881988 50.83920428 -56.8125 58.6875 C-61.80419504 61.02988117 -66.81492301 63.31026674 -71.875 65.5 C-73.58623047 66.24056641 -73.58623047 66.24056641 -75.33203125 66.99609375 C-78.0625 68.0625 -78.0625 68.0625 -80.0625 68.0625 C-82.8521847 62.70003914 -85.1725591 57.4036824 -87.125 51.6875 C-87.38249023 50.94145508 -87.63998047 50.19541016 -87.90527344 49.42675781 C-88.63185408 47.30779449 -89.34856608 45.18575114 -90.0625 43.0625 C-90.38605469 42.11632812 -90.70960937 41.17015625 -91.04296875 40.1953125 C-94.12503295 30.65186496 -95.20361875 21.11681254 -95.11328125 11.12890625 C-95.10961548 10.34938599 -95.10594971 9.56986572 -95.10217285 8.76672363 C-95.0926985 6.86529337 -95.07813006 4.96388962 -95.0625 3.0625 C-93.89763817 3.02824669 -93.89763817 3.02824669 -92.70924377 2.99330139 C-85.31224162 2.77534439 -77.91531714 2.55496462 -70.51846409 2.33200932 C-66.71766855 2.21752766 -62.91685163 2.10391242 -59.1159668 1.99243164 C-54.72436523 1.86347558 -50.33284618 1.73200636 -45.94140625 1.59765625 C-45.22858049 1.57584856 -44.51575474 1.55404087 -43.7813282 1.53157234 C-34.67299209 1.24921411 -25.58557939 0.84692276 -16.49243164 0.25219727 C-10.9936126 -0.05192277 -5.50539185 -0.04602578 0 0 Z " fill="#E87234" transform="translate(157.0625,253.9375)"/>
<path d="M0 0 C5.56329746 0.70941377 10.97148045 1.81601851 16.4375 3.0625 C17.26443359 3.24876953 18.09136719 3.43503906 18.94335938 3.62695312 C20.96279004 4.0822005 22.98147387 4.54075861 25 5 C25.10879964 10.62131492 24.85967617 15.98226679 24.0625 21.5625 C23.34235412 26.85783626 22.83129193 32.09526041 22.5625 37.4375 C22.21491103 44.14755081 21.46513922 50.77243079 20.625 57.4375 C19.14253695 69.2144879 18.03248167 81.00854536 17.00244141 92.83178711 C16.44288829 99.23800905 15.86937809 105.62729457 15 112 C-6.44441351 112.46300438 -31.04816555 105.96788963 -49 94 C-47.54175156 89.13243161 -45.50693521 84.88360058 -43.11328125 80.43359375 C-42.73318405 79.71824966 -42.35308685 79.00290558 -41.96147156 78.2658844 C-40.7494616 75.98742713 -39.53107679 73.71245064 -38.3125 71.4375 C-37.5132546 69.93707116 -36.71442293 68.43642185 -35.91601562 66.93554688 C-32.37217499 60.27993457 -28.80655023 53.63622845 -25.2265625 47 C-22.46336022 41.87542128 -19.75343581 36.72526378 -17.0625 31.5625 C-13.42391164 24.60818001 -9.62833698 17.77170334 -5.6953125 10.98046875 C-3.64843344 7.3819233 -1.79104717 3.73134828 0 0 Z " fill="#E79031" transform="translate(207,308)"/>
<path d="M0 0 C4.92387594 1.2730934 9.14129034 2.90816748 13.6875 5.25 C15.08695834 5.96409311 16.48672397 6.67758418 17.88671875 7.390625 C19.07467041 7.99874023 19.07467041 7.99874023 20.28662109 8.61914062 C25.22704601 11.13336083 30.1905385 13.6016974 35.15057373 16.07693481 C49.20296138 23.09060713 49.20296138 23.09060713 55.69140625 26.36328125 C56.98164144 27.01327775 58.27199692 27.66303554 59.5625 28.3125 C60.16400879 28.61526855 60.76551758 28.91803711 61.38525391 29.22998047 C65.67601195 31.374782 70.00973685 33.41849262 74.35595703 35.44824219 C81.82064503 38.93533233 89.09219697 42.47174865 96 47 C95.58427734 48.84464844 95.58427734 48.84464844 95.16015625 50.7265625 C94.79418533 52.35935584 94.42830468 53.99216941 94.0625 55.625 C93.88009766 56.43324219 93.69769531 57.24148437 93.50976562 58.07421875 C93.33251953 58.86699219 93.15527344 59.65976563 92.97265625 60.4765625 C92.72914429 61.5605835 92.72914429 61.5605835 92.48071289 62.66650391 C91.91076654 65.43316069 91.45069017 68.21168341 91 71 C79.21048913 71.26388176 67.50773322 70.45411948 55.75 69.6875 C53.63501563 69.55215444 51.52002531 69.41690181 49.4050293 69.28173828 C35.20374383 68.36746389 21.00647106 67.3963523 6.8125 66.375 C5.93710571 66.31283295 5.06171143 66.25066589 4.15979004 66.18661499 C1.69609733 66.01075782 -0.76722151 65.8304159 -3.23046875 65.6484375 C-3.94911606 65.59749435 -4.66776337 65.54655121 -5.40818787 65.49406433 C-9.0069261 65.22222218 -12.47980831 64.80293307 -16 64 C-17.1546292 41.80546084 -10.12094923 19.49219851 0 0 Z " fill="#E85F36" transform="translate(78,172)"/>
<path d="M0 0 C2.76694685 2.52782799 4.6948383 5.37615422 6.75 8.5 C7.45511719 9.57121094 8.16023438 10.64242187 8.88671875 11.74609375 C12.54071932 17.37230905 16.13046441 23.03776781 19.7109375 28.7109375 C24.03815348 35.54441432 28.49469887 42.2828572 33 49 C38.32702316 56.94313326 43.61513529 64.9087417 48.8125 72.9375 C49.25634033 73.62287842 49.70018066 74.30825684 50.1574707 75.0144043 C53.14947117 79.64882922 56.08836178 84.31470378 59 89 C54.5078125 94.46875 54.5078125 94.46875 53 96 C52.34 96 51.68 96 51 96 C50.73445313 96.58265625 50.46890625 97.1653125 50.1953125 97.765625 C48.96697004 100.06174228 47.59685061 101.80356018 45.875 103.75 C45.33617187 104.36359375 44.79734375 104.9771875 44.2421875 105.609375 C43.83226562 106.06828125 43.42234375 106.5271875 43 107 C39.06946815 106.43450607 36.46592463 105.28617442 33.1875 103.0625 C32.39730469 102.53785156 31.60710937 102.01320313 30.79296875 101.47265625 C30.20128906 100.98667969 29.60960937 100.50070313 29 100 C29 99.34 29 98.68 29 98 C28.28610107 97.74114014 27.57220215 97.48228027 26.83666992 97.21557617 C23.82859102 95.92654744 21.32850038 94.37534161 18.61328125 92.55078125 C17.59169922 91.86693359 16.57011719 91.18308594 15.51757812 90.47851562 C14.45990234 89.76373047 13.40222656 89.04894531 12.3125 88.3125 C11.27416016 87.61705078 10.23582031 86.92160156 9.16601562 86.20507812 C3.37727171 82.31809083 -2.36281751 78.37077726 -8.05004883 74.33666992 C-9.95497052 72.96549719 -9.95497052 72.96549719 -12 72 C-12 71.34 -12 70.68 -12 70 C-12.6703125 69.77441406 -13.340625 69.54882812 -14.03125 69.31640625 C-17.86186714 67.61782997 -21.08427806 65.34601135 -24.5 62.9375 C-25.19544922 62.4530542 -25.89089844 61.9686084 -26.60742188 61.46948242 C-28.03781191 60.47280568 -29.4668472 59.47418188 -30.89453125 58.47363281 C-33.51046646 56.64272083 -36.13652432 54.8267318 -38.76367188 53.01196289 C-41.17782478 51.34425575 -43.5888835 49.67209278 -46 48 C-42.3851721 37.88211488 -34.26894114 29.68361228 -27 22 C-26.25234375 21.18789062 -25.5046875 20.37578125 -24.734375 19.5390625 C-17.73804893 12.19523679 -9.15664682 4.57832341 0 0 Z " fill="#EA4D37" transform="translate(137,107)"/>
<path d="M0 0 C22.60011036 -0.76370836 44.66357197 3.83178598 65 14 C64.35246607 18.18774395 62.95086773 21.63395009 61.18359375 25.4765625 C60.89545303 26.10702988 60.60731232 26.73749725 60.31044006 27.3870697 C59.35769836 29.46866831 58.39756964 31.54677234 57.4375 33.625 C56.76640321 35.08822013 56.09583958 36.55168489 55.42578125 38.01538086 C54.01436952 41.09635282 52.59999366 44.17593729 51.18310547 47.25439453 C47.95245259 54.27429222 44.7371946 61.3012282 41.5227356 68.32855225 C40.53164776 70.49337222 39.53838379 72.65718163 38.54467773 74.82080078 C35.06060301 82.41770751 31.63939687 90.03732001 28.32128906 97.70838928 C26.3628195 102.22525992 24.27377921 106.63434391 22 111 C13.55253581 110.24576213 5.31612829 108.61075239 -3 107 C-3.13131876 90.26258282 -2.79040135 73.59556564 -2.0625 56.875 C-1.87677313 52.42847294 -1.69446705 47.98180658 -1.51171875 43.53515625 C-1.4668634 42.45628647 -1.42200806 41.37741669 -1.37579346 40.26585388 C-0.99049136 30.94959616 -0.66377924 21.63220652 -0.375 12.3125 C-0.33511963 11.03165527 -0.29523926 9.75081055 -0.25415039 8.43115234 C-0.16785926 5.62081158 -0.08288802 2.81044284 0 0 Z " fill="#EB3E37" transform="translate(239,79)"/>
<path d="M0 0 C1.5078125 1.46875 1.5078125 1.46875 3.125 3.5 C7.01229626 8.16142592 11.38941505 12.06897973 16 16 C15.41852682 20.13046466 13.04623004 22.99727341 10.625 26.25 C9.70957988 27.50421857 8.79556955 28.75946705 7.8828125 30.015625 C7.4074707 30.66853516 6.93212891 31.32144531 6.44238281 31.99414062 C4.0718115 35.29079159 1.787693 38.64555775 -0.5 42 C-4.32385529 47.59015371 -8.20531611 53.13270123 -12.15576172 58.6340332 C-15.50569763 63.29977958 -18.8189378 67.99058307 -22.125 72.6875 C-25.46050153 77.42600905 -28.81836879 82.14279008 -32.25 86.8125 C-36.3557249 92.41905712 -40.18816979 98.19101406 -44 104 C-54.12033758 100.38429591 -62.31048285 92.26517925 -70 85 C-70.68835938 84.36449219 -71.37671875 83.72898437 -72.0859375 83.07421875 C-77.80291185 77.61710687 -82.43547866 71.43494549 -87 65 C-87.74765625 63.95070313 -88.4953125 62.90140625 -89.265625 61.8203125 C-91 59 -91 59 -91 56 C-89.52563477 54.73242188 -89.52563477 54.73242188 -87.44140625 53.46875 C-86.67159424 52.99356934 -85.90178223 52.51838867 -85.10864258 52.02880859 C-84.26841553 51.52430176 -83.42818848 51.01979492 -82.5625 50.5 C-80.80669597 49.4202389 -79.05149922 48.33948976 -77.296875 47.2578125 C-75.96172852 46.44038574 -75.96172852 46.44038574 -74.59960938 45.60644531 C-70.79721366 43.25673045 -67.05437976 40.8194903 -63.3125 38.375 C-57.37206178 34.5131669 -51.39107622 30.72446999 -45.37475586 26.98217773 C-39.51918625 23.33555701 -33.69448384 19.64139193 -27.875 15.9375 C-26.93785156 15.34203369 -26.00070313 14.74656738 -25.03515625 14.13305664 C-20.86966855 11.48245794 -16.71271637 8.82197206 -12.58984375 6.10546875 C-11.94225098 5.68080322 -11.2946582 5.2561377 -10.62744141 4.81860352 C-8.94197037 3.71014671 -7.26177308 2.59368222 -5.58203125 1.4765625 C-3 0 -3 0 0 0 Z " fill="#E88631" transform="translate(182,287)"/>
<path d="M0 0 C16.22070718 3.70383933 35.29952077 20.9919075 45 34 C45.70286303 35.65172812 46.38655243 37.31301918 47 39 C48.485 39.495 48.485 39.495 50 40 C50.6875 42.0625 50.6875 42.0625 51 44 C50.15179688 44.59425781 49.30359375 45.18851563 48.4296875 45.80078125 C40.31085206 51.52429721 32.44927375 57.50140907 24.671875 63.67822266 C19.82596033 67.50938241 14.90753647 71.2483304 10 75 C9.24332031 75.57878906 8.48664063 76.15757812 7.70703125 76.75390625 C2.40558596 80.80697353 -2.90377369 84.84946046 -8.21875 88.88476562 C-11.0355187 91.02701317 -13.84586204 93.17751648 -16.65625 95.328125 C-18.45803905 96.69830374 -20.26011203 98.0681092 -22.0625 99.4375 C-23.32042358 100.40465942 -23.32042358 100.40465942 -24.60375977 101.39135742 C-25.38549561 101.98279541 -26.16723145 102.5742334 -26.97265625 103.18359375 C-27.99758179 103.96561157 -27.99758179 103.96561157 -29.04321289 104.76342773 C-31.07185334 106.04540701 -32.62629134 106.67854065 -35 107 C-36.53515625 105.8125 -36.53515625 105.8125 -38.0625 104 C-42.38893436 99.30515747 -47.54713033 96.24411233 -53 93 C-51.36590935 86.77788562 -48.01273231 81.6003291 -44.75 76.125 C-43.47508724 73.96364381 -42.20035262 71.80218253 -40.92578125 69.640625 C-40.27303223 68.53783203 -39.6202832 67.43503906 -38.94775391 66.29882812 C-35.9203747 61.17148445 -32.93099229 56.02217178 -29.9375 50.875 C-24.35060454 41.28931849 -18.71793454 31.73127793 -13.06640625 22.18359375 C-8.69507022 14.79840212 -4.34735027 7.39932755 0 0 Z " fill="#EA4138" transform="translate(322,101)"/>
<path d="M0 0 C0.52705503 11.12810609 1.04895789 22.25644142 1.56460571 33.38508224 C1.80429594 38.55469162 2.04564195 43.72421171 2.29101562 48.89355469 C2.52854431 53.89899719 2.76140568 58.90463852 2.99127197 63.91043854 C3.07895803 65.80308774 3.1682175 67.69566484 3.25921631 69.58815765 C3.87398378 82.40244107 4.10872837 95.17113132 4 108 C2.67874283 108.30051669 1.35747136 108.6009705 0.03619385 108.90139771 C-0.69958767 109.06871965 -1.43536919 109.2360416 -2.19344711 109.40843391 C-3.73812919 109.75887288 -5.2834583 110.10646179 -6.82910156 110.45263672 C-7.5094043 110.61006348 -8.18970703 110.76749023 -8.890625 110.9296875 C-9.92751465 111.16534424 -9.92751465 111.16534424 -10.98535156 111.40576172 C-13.06102188 111.94935347 -13.06102188 111.94935347 -15.06933594 113.06689453 C-17 114 -17 114 -20 114 C-28.44020523 96.17316666 -36.86963118 78.34245857 -45.15576172 60.44335938 C-49.51401944 51.0327053 -53.90817819 41.6391694 -58.3125 32.25 C-58.64977112 31.53098511 -58.98704224 30.81197021 -59.33453369 30.07116699 C-61.22230994 26.04711003 -63.11082898 22.02340239 -65 18 C-57.78686539 10.46932225 -45.73482292 8.05137074 -36 5 C-35.12085938 4.69964844 -34.24171875 4.39929688 -33.3359375 4.08984375 C-22.83665868 0.77340488 -10.97914511 0 0 0 Z " fill="#EA4138" transform="translate(223,78)"/>
<path d="M0 0 C0.85896378 0.28143356 1.71792755 0.56286713 2.60292053 0.85282898 C5.33361954 1.7503308 8.05927147 2.66221359 10.78515625 3.57421875 C12.61233049 4.17604093 14.43980208 4.77696115 16.26757812 5.37695312 C23.84846451 7.87615542 31.38822324 10.41736723 38.84765625 13.26171875 C39.56277598 25.61030413 39.99186011 37.89223228 39.84765625 50.26171875 C38.19150968 50.64390642 36.52308601 50.97566977 34.84765625 51.26171875 C33.10936337 49.52342587 33.7152829 47.27703369 33.7109375 44.9609375 C33.71480469 44.23519531 33.71867187 43.50945312 33.72265625 42.76171875 C33.71878906 42.09785156 33.71492188 41.43398438 33.7109375 40.75 C33.72582921 32.57445221 34.33115151 24.41755206 34.84765625 16.26171875 C29.72399242 17.91336576 24.60114211 19.56750467 19.47900391 21.22387695 C17.73931219 21.78607275 15.99940673 22.3476076 14.25927734 22.90844727 C11.74649377 23.71844197 9.23450902 24.53087404 6.72265625 25.34375 C5.57059692 25.71425224 5.57059692 25.71425224 4.39526367 26.09223938 C0.72079629 27.28380652 -2.89648182 28.53900384 -6.4921875 29.9519043 C-14.22597823 32.7194995 -21.74341202 28.8501021 -29.1015625 26.19921875 C-30.19082031 25.80734375 -31.28007812 25.41546875 -32.40234375 25.01171875 C-33.57667969 24.58761719 -34.75101563 24.16351563 -35.9609375 23.7265625 C-39.18659752 22.58212803 -42.4319629 21.50946943 -45.6875 20.453125 C-47.11884277 19.98664551 -47.11884277 19.98664551 -48.57910156 19.51074219 C-50.48654153 18.89171175 -52.39603301 18.27896362 -54.30761719 17.67285156 C-55.18063477 17.38893555 -56.05365234 17.10501953 -56.953125 16.8125 C-57.73856689 16.56153564 -58.52400879 16.31057129 -59.33325195 16.05200195 C-61.15234375 15.26171875 -61.15234375 15.26171875 -62.15234375 13.26171875 C-60.93651611 12.84809082 -59.72068848 12.43446289 -58.46801758 12.00830078 C-53.9481924 10.47025188 -49.4289641 8.93045572 -44.90991211 7.39013672 C-42.95564699 6.72429658 -41.00122131 6.0589275 -39.04663086 5.39404297 C-36.23378621 4.43711794 -33.42152733 3.47848863 -30.609375 2.51953125 C-29.73835648 2.22362091 -28.86733795 1.92771057 -27.96992493 1.62283325 C-27.14945175 1.34269379 -26.32897858 1.06255432 -25.48364258 0.77392578 C-24.71798981 0.51323303 -23.95233704 0.25254028 -23.16348267 -0.01605225 C-21.01963518 -0.75529843 -21.01963518 -0.75529843 -18.4987793 -1.94189453 C-12.01131727 -4.1437571 -6.18734265 -2.09062735 0 0 Z " fill="#F85E34" transform="translate(248.15234375,222.73828125)"/>
<path d="M0 0 C2.04259193 0.45287809 4.08403592 0.91093511 6.125 1.37109375 C7.26195312 1.62560303 8.39890625 1.8801123 9.5703125 2.14233398 C15.28209378 3.5706859 21.02645785 5.43579293 26.25 8.18359375 C34.21820109 10.54915345 42.38962222 6.69783798 49.8125 3.9375 C51.83776365 3.19094724 53.86503801 2.44982067 55.89453125 1.71484375 C57.22254761 1.22165649 57.22254761 1.22165649 58.57739258 0.71850586 C61 0 61 0 65 0 C65.17406637 4.58285502 65.28078485 9.16486293 65.375 13.75 C65.42527344 15.05195313 65.47554688 16.35390625 65.52734375 17.6953125 C65.67556907 27.28054956 65.67556907 27.28054956 62.4140625 30.75390625 C58.94986217 32.01829974 55.56308021 33.23031288 52 34.1875 C50.824375 34.51105469 49.64875 34.83460938 48.4375 35.16796875 C33.08809953 38.88322136 16.76134925 37.71162583 2.7578125 30.0859375 C1 29 1 29 0 28 C-0.08767112 25.92737924 -0.10695873 23.85179706 -0.09765625 21.77734375 C-0.09443359 20.51728516 -0.09121094 19.25722656 -0.08789062 17.95898438 C-0.07953403 16.61848891 -0.07106907 15.27799412 -0.0625 13.9375 C-0.0574866 12.59310058 -0.05292342 11.2486994 -0.04882812 9.90429688 C-0.03699488 6.60282059 -0.02050971 3.30143197 0 0 Z " fill="#F46F34" transform="translate(204,249)"/>
<path d="M0 0 C0 0.66 0 1.32 0 2 C-1.65 2.66 -3.3 3.32 -5 4 C-5.33 14.23 -5.66 24.46 -6 35 C-6.33 35 -6.66 35 -7 35 C-7 26.09 -7 17.18 -7 8 C-9.09601563 8.721875 -11.19203125 9.44375 -13.3515625 10.1875 C-15.39623604 10.88468028 -17.44195183 11.5787155 -19.48779297 12.27246094 C-20.90297482 12.75421122 -22.31706038 13.23919508 -23.72998047 13.72753906 C-25.76766936 14.43118075 -27.80909069 15.12288377 -29.8515625 15.8125 C-31.07697754 16.23144531 -32.30239258 16.65039062 -33.56494141 17.08203125 C-38.73152693 18.46272504 -42.71535082 18.37984016 -47.71484375 16.5390625 C-48.56626953 16.23226563 -49.41769531 15.92546875 -50.29492188 15.609375 C-51.16697266 15.28453125 -52.03902344 14.9596875 -52.9375 14.625 C-54.67510376 13.99032958 -56.41337422 13.35748115 -58.15234375 12.7265625 C-58.97460449 12.42782227 -59.79686523 12.12908203 -60.64404297 11.82128906 C-63.73267851 10.74458751 -66.84227196 9.85065327 -70 9 C-70 8.67 -70 8.34 -70 8 C-68.02 8 -66.04 8 -64 8 C-64 7.34 -64 6.68 -64 6 C-65.32 5.67 -66.64 5.34 -68 5 C-64.47207945 3.74060502 -62.68930168 4.24919925 -59.3125 5.75 C-56.00298637 7.15654329 -52.71360344 8.51691474 -49.3125 9.6875 C-48.64863281 9.91824219 -47.98476562 10.14898437 -47.30078125 10.38671875 C-40.52690068 12.19232019 -36.18201383 11.85769021 -29.765625 9.47265625 C-29.00578308 9.20488876 -28.24594116 8.93712128 -27.46307373 8.66123962 C-25.05331154 7.80935091 -22.65162935 6.93702467 -20.25 6.0625 C-17.83292276 5.19534289 -15.41438678 4.33257217 -12.99407959 3.47447205 C-11.49275195 2.94082777 -9.99350354 2.40128899 -8.49664307 1.85523987 C-5.52825689 0.78911412 -3.18025995 0 0 0 Z " fill="#FCE6DB" transform="translate(276,241)"/>
<path d="M0 0 C16.82882022 -0.56868354 31.95842986 1.99177604 48 7 C43.98285416 8.33904861 40.67905836 7.44421191 36.625 6.6875 C35.49191406 6.49124023 35.49191406 6.49124023 34.3359375 6.29101562 C31.24620474 5.73194685 28.46743501 5.19733441 25.5612793 3.97045898 C22.86966875 2.95061798 20.7833024 2.6914099 17.91796875 2.5859375 C16.98662109 2.54726562 16.05527344 2.50859375 15.09570312 2.46875 C14.13599609 2.4378125 13.17628906 2.406875 12.1875 2.375 C11.20845703 2.33632812 10.22941406 2.29765625 9.22070312 2.2578125 C6.81398626 2.16389184 4.40726988 2.07821799 2 2 C2.00523682 2.88147705 2.01047363 3.7629541 2.01586914 4.67114258 C2.03308269 7.99422888 2.04553263 11.31726665 2.05493164 14.64038086 C2.05990862 16.06877396 2.06669262 17.49716212 2.07543945 18.92553711 C2.08780044 20.99854772 2.09329463 23.07149005 2.09765625 25.14453125 C2.10289307 26.38565674 2.10812988 27.62678223 2.11352539 28.90551758 C2.07267173 32.03666268 1.82197565 35.11488297 1.51586914 38.23095703 C0.93905938 44.20740672 0.76161144 50.15915255 0.6484375 56.16015625 C0.62528473 57.27184677 0.60213196 58.38353729 0.57827759 59.52891541 C0.53101496 61.85574503 0.4857403 64.18261582 0.44238281 66.50952148 C0.37459239 70.0839926 0.29699874 73.65816611 0.21875 77.23242188 C0.17389046 79.49998843 0.12959894 81.76756631 0.0859375 84.03515625 C0.06203949 85.10588882 0.03814148 86.1766214 0.01351929 87.27980042 C-0.0117836 88.75790443 -0.0117836 88.75790443 -0.03759766 90.26586914 C-0.05456696 91.13425919 -0.07153625 92.00264923 -0.08901978 92.89735413 C-0.14109841 95.05861972 -0.14109841 95.05861972 1 97 C0.01 97.495 0.01 97.495 -1 98 C-1.46523063 99.89533342 -1.46523063 99.89533342 -1.625 102.0625 C-1.74875 103.361875 -1.8725 104.66125 -2 106 C1.3 106.33 4.6 106.66 8 107 C8 107.33 8 107.66 8 108 C6.741875 108.020625 5.48375 108.04125 4.1875 108.0625 C3.47980469 108.07410156 2.77210938 108.08570313 2.04296875 108.09765625 C0 108 0 108 -3 107 C-3.13131876 90.26258282 -2.79040135 73.59556564 -2.0625 56.875 C-1.87677313 52.42847294 -1.69446705 47.98180658 -1.51171875 43.53515625 C-1.4668634 42.45628647 -1.42200806 41.37741669 -1.37579346 40.26585388 C-0.99049136 30.94959616 -0.66377924 21.63220652 -0.375 12.3125 C-0.33511963 11.03165527 -0.29523926 9.75081055 -0.25415039 8.43115234 C-0.16785926 5.62081158 -0.08288802 2.81044284 0 0 Z " fill="#D3665F" transform="translate(239,79)"/>
<path d="M0 0 C4.07499231 1.41996102 7.12920655 3.40234821 10.5625 6 C13.62337543 8.30945386 16.4989967 10.41837027 20 12 C20 12.66 20 13.32 20 14 C21.051875 14.37125 21.051875 14.37125 22.125 14.75 C25.37901828 16.16479056 28.09096923 17.97632642 31 20 C31.99 20.66 32.98 21.32 34 22 C33.360625 22.53625 32.72125 23.0725 32.0625 23.625 C29.61470596 26.44367193 29.33285388 28.33860732 29 32 C28.34 32 27.68 32 27 32 C27 30.02 27 28.04 27 26 C17.78972955 21.04394591 8.61772078 16.1337504 -1 12 C1.07553648 11.4465236 2.84365964 11 5 11 C5 8.69 5 6.38 5 4 C4.01 4 3.02 4 2 4 C2 3.34 2 2.68 2 2 C1.34 2 0.68 2 0 2 C0 1.34 0 0.68 0 0 Z " fill="#F9F2F0" transform="translate(146,193)"/>
<path d="M0 0 C1.90733668 2.86100501 3.28046876 5.61504291 4.71484375 8.734375 C5.23626953 9.86617187 5.75769531 10.99796875 6.29492188 12.1640625 C7.10799805 13.93910156 7.10799805 13.93910156 7.9375 15.75 C8.47568359 16.91789062 9.01386719 18.08578125 9.56835938 19.2890625 C12.11624177 24.83094232 14.63994894 30.37534868 17 36 C16.34 36 15.68 36 15 36 C14.67 36.99 14.34 37.98 14 39 C14 36.36 14 33.72 14 31 C13.01 30.67 12.02 30.34 11 30 C10.67 27.69 10.34 25.38 10 23 C9.34 23 8.68 23 8 23 C7.67 24.32 7.34 25.64 7 27 C6.34 27 5.68 27 5 27 C5.165 27.763125 5.33 28.52625 5.5 29.3125 C6 32 6 32 6 35 C3.91691376 33.02172313 2.27362163 31.06992403 0.73828125 28.64453125 C0.34189453 28.02255859 -0.05449219 27.40058594 -0.46289062 26.75976562 C-0.86701172 26.11716797 -1.27113281 25.47457031 -1.6875 24.8125 C-2.10322266 24.15830078 -2.51894531 23.50410156 -2.94726562 22.83007812 C-3.9683003 21.22224191 -4.98461863 19.61141236 -6 18 C-5.34 17.67 -4.68 17.34 -4 17 C-3.67 16.01 -3.34 15.02 -3 14 C-2.34 14 -1.68 14 -1 14 C-1.33 13.01 -1.66 12.02 -2 11 C-1.67 10.67 -1.34 10.34 -1 10 C-0.76712992 8.31816052 -0.58735834 6.6287584 -0.4375 4.9375 C-0.35371094 4.01839844 -0.26992187 3.09929687 -0.18359375 2.15234375 C-0.12300781 1.44207031 -0.06242188 0.73179687 0 0 Z " fill="#F9EFED" transform="translate(185,153)"/>
<path d="M0 0 C1.79643505 3.5928701 0.49019233 7.83609613 0.05859375 11.73828125 C-0.00193989 15.10798695 0.67183884 16.96189855 2 20 C1.67 20.66 1.34 21.32 1 22 C5.49707358 25.50991108 8.29184773 26.63423914 14 26 C15.3479743 25.36345658 16.68596724 24.70394612 18 24 C18.99 24.33 19.98 24.66 21 25 C19.42982807 26.36940568 17.84334609 27.72012895 16.25 29.0625 C15.36828125 29.81660156 14.4865625 30.57070312 13.578125 31.34765625 C11 33 11 33 8.9375 32.98046875 C6.46660441 31.73007602 4.75109399 30.16471584 2.75 28.25 C-1.261975 24.55073284 -5.28943811 21.74069056 -10 19 C-8.62394084 14.23448987 -6.53221934 10.2751447 -3.875 6.125 C-3.50246094 5.53203125 -3.12992187 4.9390625 -2.74609375 4.328125 C-1.83635 2.8818657 -0.91896202 1.44041954 0 0 Z " fill="#E54F37" transform="translate(279,175)"/>
<path d="M0 0 C0.17406637 4.58285502 0.28078485 9.16486293 0.375 13.75 C0.42527344 15.05195313 0.47554688 16.35390625 0.52734375 17.6953125 C0.67556907 27.28054956 0.67556907 27.28054956 -2.5859375 30.75390625 C-6.05013783 32.01829974 -9.43691979 33.23031288 -13 34.1875 C-14.175625 34.51105469 -15.35125 34.83460938 -16.5625 35.16796875 C-31.62056922 38.81270596 -48.44555419 38.02201895 -62 30 C-59.3333581 28.66667905 -57.83319697 29.32897967 -55 30 C-55 30.66 -55 31.32 -55 32 C-54.02160156 32.09087891 -54.02160156 32.09087891 -53.0234375 32.18359375 C-45.51509054 32.90342052 -45.51509054 32.90342052 -42 33.5625 C-34.63494101 34.6365711 -27.88348736 33.91067597 -20.62890625 32.4453125 C-17.02512522 31.83486519 -13.64635671 31.86240163 -10 32 C-10 31.34 -10 30.68 -10 30 C-8.35 30 -6.7 30 -5 30 C-5 29.01 -5 28.02 -5 27 C-4.01 27 -3.02 27 -2 27 C-2 18.75 -2 10.5 -2 2 C-2.99 2 -3.98 2 -5 2 C-5 2.66 -5 3.32 -5 4 C-6.98 4 -8.96 4 -11 4 C-11.33 4.66 -11.66 5.32 -12 6 C-12.99 5.34 -13.98 4.68 -15 4 C-13.25307205 3.32532438 -11.50231475 2.66055844 -9.75 2 C-8.77546875 1.62875 -7.8009375 1.2575 -6.796875 0.875 C-4 0 -4 0 0 0 Z " fill="#E17F4C" transform="translate(269,249)"/>
<path d="M0 0 C0.66 0.33 1.32 0.66 2 1 C2.625 3.0625 2.625 3.0625 3 5 C3.763125 4.938125 4.52625 4.87625 5.3125 4.8125 C8.48780806 5.03403312 8.95735659 5.71775032 11 8 C9.06453884 9.14927384 7.12655872 10.29430642 5.1875 11.4375 C3.56908203 12.39462891 3.56908203 12.39462891 1.91796875 13.37109375 C-1 15 -1 15 -4 16 C-4 15.01 -4 14.02 -4 13 C-5.98 13 -7.96 13 -10 13 C-10 12.34 -10 11.68 -10 11 C-10.66 10.67 -11.32 10.34 -12 10 C-12.33 9.67 -12.66 9.34 -13 9 C-15.33944736 9.28730055 -17.6739143 9.61936779 -20 10 C-18.64068647 7.28137293 -17.31729353 7.1771374 -14.5 6.125 C-10.16998882 4.47636068 -5.98808327 2.64249 -1.8125 0.63671875 C-1.214375 0.42660156 -0.61625 0.21648437 0 0 Z " fill="#F8F3F0" transform="translate(164,283)"/>
<path d="M0 0 C0 0.33 0 0.66 0 1 C-0.71027344 1.06058594 -1.42054687 1.12117188 -2.15234375 1.18359375 C-3.07144531 1.26738281 -3.99054688 1.35117187 -4.9375 1.4375 C-5.85402344 1.51871094 -6.77054688 1.59992188 -7.71484375 1.68359375 C-9.96159732 1.76044976 -9.96159732 1.76044976 -11 3 C-12.65725264 3.07579477 -14.3177045 3.08302548 -15.9765625 3.0625 C-17.55655029 3.04993164 -17.55655029 3.04993164 -19.16845703 3.03710938 C-20.8794458 3.01874023 -20.8794458 3.01874023 -22.625 3 C-35.11102021 2.92351596 -47.53389537 3.3263502 -60 4 C-59.90912109 4.70084717 -59.81824219 5.40169434 -59.72460938 6.1237793 C-59.31314937 9.31127556 -58.90652764 12.49937108 -58.5 15.6875 C-58.35691406 16.79029297 -58.21382813 17.89308594 -58.06640625 19.02929688 C-57.93105469 20.09599609 -57.79570313 21.16269531 -57.65625 22.26171875 C-57.53056641 23.24100342 -57.40488281 24.22028809 -57.27539062 25.22924805 C-57.01567205 27.84232089 -56.94974671 30.37635968 -57 33 C-62.01262876 27.98737124 -61.10382584 17.78891692 -61.13623047 11.01000977 C-61.12009087 7.67226987 -61.07193589 4.33702607 -61 1 C-40.65345632 0.03672873 -20.36435955 -0.12001844 0 0 Z " fill="#D78A64" transform="translate(123,256)"/>
<path d="M0 0 C0.33 0 0.66 0 1 0 C1.0749903 3.89949544 0.94008129 7.23967485 0 11 C-0.1421701 12.58567839 -0.24504041 14.17518632 -0.31640625 15.765625 C-0.35830078 16.65507812 -0.40019531 17.54453125 -0.44335938 18.4609375 C-0.50233398 19.84152344 -0.50233398 19.84152344 -0.5625 21.25 C-0.60568359 22.18585938 -0.64886719 23.12171875 -0.69335938 24.0859375 C-0.7991805 26.39048641 -0.90126557 28.69513839 -1 31 C-0.34966797 31.01458252 0.30066406 31.02916504 0.97070312 31.04418945 C20.09506108 31.51432438 38.98167533 33.03284235 58 35 C58 35.33 58 35.66 58 36 C46.45247277 36.21181552 35.0612068 35.66086041 23.55053711 34.77319336 C20.77831196 34.55986921 18.00548152 34.35645606 15.23242188 34.15429688 C13.4530823 34.02140383 11.67378368 33.88796101 9.89453125 33.75390625 C8.66329277 33.66321617 8.66329277 33.66321617 7.40718079 33.57069397 C3.53449213 33.26853371 -0.20611833 32.88379386 -4 32 C-4.55496819 21.33227804 -3.39328782 10.17986347 0 0 Z " fill="#D78668" transform="translate(66,204)"/>
<path d="M0 0 C0 0.66 0 1.32 0 2 C-1.65 2.66 -3.3 3.32 -5 4 C-5.33 14.23 -5.66 24.46 -6 35 C-6.33 35 -6.66 35 -7 35 C-7 26.09 -7 17.18 -7 8 C-13.82387391 10.34056414 -13.82387391 10.34056414 -20.64208984 12.69750977 C-21.48980957 12.98424561 -22.3375293 13.27098145 -23.2109375 13.56640625 C-24.08024902 13.86490479 -24.94956055 14.16340332 -25.84521484 14.47094727 C-28 15 -28 15 -30 14 C-27 12 -27 12 -23 12 C-23 11.34 -23 10.68 -23 10 C-27.455 10.495 -27.455 10.495 -32 11 C-29.49233084 8.49233084 -27.3682377 7.95549488 -24.00390625 6.8359375 C-22.80572266 6.43632812 -21.60753906 6.03671875 -20.37304688 5.625 C-19.747771 5.42003906 -19.12249512 5.21507812 -18.47827148 5.00390625 C-16.57068448 4.37768679 -14.66707305 3.74037691 -12.76367188 3.1015625 C-3.39352932 0 -3.39352932 0 0 0 Z " fill="#FCDED1" transform="translate(276,241)"/>
<path d="M0 0 C0.66 0 1.32 0 2 0 C2 6.27 2 12.54 2 19 C2.66 19 3.32 19 4 19 C4 24.61 4 30.22 4 36 C1.525 36.495 1.525 36.495 -1 37 C-2 36 -2 36 -2.09765625 32.18359375 C-2.09098089 30.60153318 -2.07901875 29.01948841 -2.0625 27.4375 C-2.05798828 26.63119141 -2.05347656 25.82488281 -2.04882812 24.99414062 C-2.03700518 22.99606244 -2.01906914 20.99802217 -2 19 C-1.34 19 -0.68 19 0 19 C0 12.73 0 6.46 0 0 Z " fill="#CC5251" transform="translate(284,237)"/>
<path d="M0 0 C6.78661213 0.78914095 13.36149367 2.41274811 20 4 C20 4.33 20 4.66 20 5 C14.98022642 5.10912551 10.12731949 4.76901532 5.13671875 4.21875 C3.02638105 3.96605191 3.02638105 3.96605191 1 4 C0.15545644 7.37817425 -0.10844919 9.67465243 1 13 C0.34 13 -0.32 13 -1 13 C-1.268125 13.556875 -1.53625 14.11375 -1.8125 14.6875 C-3.10128679 17.1972427 -4.53946726 19.5869459 -6 22 C-6.33 22.66 -6.66 23.32 -7 24 C-8.32 23.67 -9.64 23.34 -11 23 C-11.33 24.65 -11.66 26.3 -12 28 C-12.66 28 -13.32 28 -14 28 C-12.61942292 23.31742413 -10.61006355 19.29701289 -8.125 15.125 C-5.22552938 10.16365447 -2.48712883 5.18151841 0 0 Z " fill="#DF8143" transform="translate(207,308)"/>
<path d="M0 0 C1.5 1.375 1.5 1.375 3 3 C3 3.66 3 4.32 3 5 C3.99 5.33 4.98 5.66 6 6 C6.54372951 9.05847848 7 11.88772805 7 15 C7.99 15.33 8.98 15.66 10 16 C10.6875 18.0625 10.6875 18.0625 11 20 C14.28696233 20.79953138 15.71023192 21.09658936 19 20 C19.7425 20.020625 20.485 20.04125 21.25 20.0625 C24.72311771 19.98356551 27.68017551 18.9836517 31 18 C31.99 18 32.98 18 34 18 C34 12.06 34 6.12 34 0 C34.33 0 34.66 0 35 0 C35 6.6 35 13.2 35 20 C26.75 21.875 26.75 21.875 24.17089844 22.45263672 C23.4905957 22.61006348 22.81029297 22.76749023 22.109375 22.9296875 C21.07248535 23.16534424 21.07248535 23.16534424 20.01464844 23.40576172 C17.93897812 23.94935347 17.93897812 23.94935347 15.93066406 25.06689453 C14 26 14 26 11 26 C9.15718644 22.2337275 7.32739574 18.46127425 5.5 14.6875 C4.97535156 13.61564453 4.45070312 12.54378906 3.91015625 11.43945312 C3.16572266 9.89741211 3.16572266 9.89741211 2.40625 8.32421875 C1.94541016 7.37635498 1.48457031 6.42849121 1.00976562 5.4519043 C0 3 0 3 0 0 Z " fill="#D36555" transform="translate(192,166)"/>
<path d="M0 0 C2.38125464 2.38125464 3.00186241 4.33857567 4.125 7.5 C4.47820312 8.4796875 4.83140625 9.459375 5.1953125 10.46875 C6 13 6 13 6 15 C6.66 15 7.32 15 8 15 C8 15.99 8 16.98 8 18 C9.32 18.33 10.64 18.66 12 19 C11.67 19.99 11.34 20.98 11 22 C13.64 22.33 16.28 22.66 19 23 C19.33 21.68 19.66 20.36 20 19 C23.57644848 17.7619986 26.33694766 18.25073929 30 19 C26.61736896 21.8301913 22.90881541 23.5032781 18.875 25.1875 C18.24207031 25.46013672 17.60914062 25.73277344 16.95703125 26.01367188 C12.2675047 28 12.2675047 28 10 28 C7.13543344 22.50127767 4.77597299 17.04318214 2.75 11.1875 C2.481875 10.43791016 2.21375 9.68832031 1.9375 8.91601562 C0.85687361 5.83126837 0 3.29243708 0 0 Z " fill="#D68952" transform="translate(67,294)"/>
<path d="M0 0 C0.33 0 0.66 0 1 0 C0.5288245 12.10177069 -0.27476648 24.00711457 -2 36 C-7.92731836 36.14225564 -13.46818445 35.65217626 -19.3125 34.6875 C-20.14048096 34.55432373 -20.96846191 34.42114746 -21.8215332 34.28393555 C-28.00145685 33.25324384 -34.02179706 31.89421711 -40 30 C-36.06453061 28.56340192 -32.34621448 29.28395145 -28.3125 29.875 C-27.62349609 29.96652344 -26.93449219 30.05804688 -26.22460938 30.15234375 C-21.13733929 30.86266071 -21.13733929 30.86266071 -20 32 C-17.31137336 32.39993686 -14.63647783 32.75134543 -11.9375 33.0625 C-11.17888672 33.15337891 -10.42027344 33.24425781 -9.63867188 33.33789062 C-7.7595699 33.5624374 -5.87983905 33.78170978 -4 34 C-3.90912109 32.42798828 -3.90912109 32.42798828 -3.81640625 30.82421875 C-3.73198262 29.44529952 -3.64733553 28.06639395 -3.5625 26.6875 C-3.52318359 25.99720703 -3.48386719 25.30691406 -3.44335938 24.59570312 C-3.25072585 21.52838465 -2.97677283 18.93031848 -2 16 C-1.61496448 13.27102562 -1.2601109 10.54871837 -0.9375 7.8125 C-0.84662109 7.06291016 -0.75574219 6.31332031 -0.66210938 5.54101562 C-0.4386269 3.69434465 -0.21894487 1.84721446 0 0 Z " fill="#DCAF62" transform="translate(224,384)"/>
<path d="M0 0 C1.90234375 0.34765625 1.90234375 0.34765625 4 1 C5.04892238 2.63631892 6.04906703 4.30485863 7 6 C7.99 6.66 8.98 7.32 10 8 C10 8.99 10 9.98 10 11 C10.99 11 11.98 11 13 11 C13.33 12.32 13.66 13.64 14 15 C14.99 14.67 15.98 14.34 17 14 C17.4125 14.825 17.825 15.65 18.25 16.5 C18.8275 17.325 19.405 18.15 20 19 C21.32 19 22.64 19 24 19 C24.66 19.66 25.32 20.32 26 21 C26.99 21 27.98 21 29 21 C29.33 23.31 29.66 25.62 30 28 C30.99 28.33 31.98 28.66 33 29 C33.495 30.485 33.495 30.485 34 32 C29.5465841 30.54565569 26.36096447 28.0932941 22.875 25.0625 C22.31167969 24.57740967 21.74835938 24.09231934 21.16796875 23.5925293 C13.07217874 16.53941336 5.21005564 9.52182583 0 0 Z " fill="#DBA157" transform="translate(99,356)"/>
<path d="M0 0 C0.99 0.33 1.98 0.66 3 1 C-5.42513954 7.82726825 -13.92349198 14.52444025 -22.63085938 20.98925781 C-23.26056641 21.45686523 -23.89027344 21.92447266 -24.5390625 22.40625 C-25.13235352 22.84582031 -25.72564453 23.28539062 -26.33691406 23.73828125 C-27.86798345 24.89984417 -29.35454723 26.11946052 -30.8359375 27.34375 C-33 29 -33 29 -35 29 C-35 28.01 -35 27.02 -35 26 C-34.01 25.67 -33.02 25.34 -32 25 C-31.67 24.01 -31.34 23.02 -31 22 C-29.35 22 -27.7 22 -26 22 C-26 21.01 -26 20.02 -26 19 C-24.06749544 17.2745495 -22.21762578 16.10241213 -19.875 15 C-17.66622819 14.01189614 -17.66622819 14.01189614 -16 11 C-15.34 11 -14.68 11 -14 11 C-14 10.34 -14 9.68 -14 9 C-13.01 9 -12.02 9 -11 9 C-10.67 7.02 -10.34 5.04 -10 3 C-9.67 3.66 -9.34 4.32 -9 5 C-6.52733235 4.65555119 -6.52733235 4.65555119 -4 4 C-3.67 3.34 -3.34 2.68 -3 2 C-2.01 2 -1.02 2 0 2 C0 1.34 0 0.68 0 0 Z " fill="#D95148" transform="translate(352,157)"/>
<path d="M0 0 C15.35915611 -0.44909813 30.42562402 -0.63638818 45 5 C45.66 5.66 46.32 6.32 47 7 C44.7070638 6.7401339 42.41569098 6.46646534 40.125 6.1875 C38.84882813 6.03667969 37.57265625 5.88585937 36.2578125 5.73046875 C33.09748823 5.27531943 30.21833364 4.46711753 27.1875 3.46875 C21.74579946 1.76319688 16.54826446 1.45194119 10.875 1.3125 C9.91851562 1.27833984 8.96203125 1.24417969 7.9765625 1.20898438 C5.65115927 1.12759526 3.32608124 1.05810388 1 1 C1.00523682 1.88147705 1.01047363 2.7629541 1.01586914 3.67114258 C1.03308269 6.99422888 1.04553263 10.31726665 1.05493164 13.64038086 C1.05990862 15.06877396 1.06669262 16.49716212 1.07543945 17.92553711 C1.12557575 26.33368859 0.98596687 34.63539945 0 43 C-0.33 43 -0.66 43 -1 43 C-0.67 28.81 -0.34 14.62 0 0 Z " fill="#D34443" transform="translate(240,80)"/>
<path d="M0 0 C0.66 0.33 1.32 0.66 2 1 C2 1.66 2 2.32 2 3 C-0.64738916 4.4606285 -1.89448334 5 -5 5 C-5.20625 5.598125 -5.4125 6.19625 -5.625 6.8125 C-7 9 -7 9 -9.625 10.1875 C-13.83083944 12.44619155 -16.16757809 15.38178158 -19.16796875 19.0390625 C-21 21 -21 21 -24 22 C-24.33 22.99 -24.66 23.98 -25 25 C-25.99 25 -26.98 25 -28 25 C-28.061875 25.61875 -28.12375 26.2375 -28.1875 26.875 C-29 29 -29 29 -31.5625 30.25 C-32.366875 30.4975 -33.17125 30.745 -34 31 C-31.92808515 26.44129121 -28.8224287 23.4399128 -25.3125 19.9375 C-24.65419189 19.27862793 -23.99588379 18.61975586 -23.31762695 17.94091797 C-16.4690625 11.24090007 -8.63275547 4.31637773 0 0 Z " fill="#D85047" transform="translate(137,107)"/>
<path d="M0 0 C-1.26691507 0.67408308 -2.53870749 1.33900497 -3.8125 2 C-4.52019531 2.37125 -5.22789062 2.7425 -5.95703125 3.125 C-8 4 -8 4 -11 4 C-11 4.66 -11 5.32 -11 6 C-9.9275 6.28875 -8.855 6.5775 -7.75 6.875 C-4.90599636 7.72820109 -2.56491017 8.5636503 0 10 C0 10.66 0 11.32 0 12 C0.59167969 12.03738281 1.18335938 12.07476562 1.79296875 12.11328125 C6.60667451 12.51376901 10.00841777 13.0385035 14 16 C10.82124887 17.58937556 8.5765966 16.07521791 5.27734375 14.98046875 C4.61666397 14.7618367 3.95598419 14.54320465 3.27528381 14.31794739 C1.87784636 13.85327005 0.48166703 13.38479469 -0.91333008 12.9128418 C-3.05388379 12.19040796 -5.19928907 11.48410057 -7.34570312 10.77929688 C-8.70084252 10.32648242 -10.05567143 9.87273747 -11.41015625 9.41796875 C-12.64902588 9.00313232 -13.88789551 8.5882959 -15.16430664 8.16088867 C-18 7 -18 7 -19 5 C-16.21142 3.96995707 -13.41969712 2.95069003 -10.625 1.9375 C-9.8309375 1.64294922 -9.036875 1.34839844 -8.21875 1.04492188 C-7.45820313 0.77099609 -6.69765625 0.49707031 -5.9140625 0.21484375 C-5.2123291 -0.04176025 -4.5105957 -0.29836426 -3.78759766 -0.56274414 C-2 -1 -2 -1 0 0 Z " fill="#E17A5E" transform="translate(205,231)"/>
<path d="M0 0 C2.72862732 3.31375966 5.15872453 6.67593221 7.4375 10.3125 C8.3346875 11.73949219 8.3346875 11.73949219 9.25 13.1953125 C9.8275 14.12085938 10.405 15.04640625 11 16 C11.515625 16.82242188 12.03125 17.64484375 12.5625 18.4921875 C13.71126356 20.32629295 14.85611347 22.16284891 16 24 C15.04882866 25.1725131 14.08882991 26.33787015 13.125 27.5 C12.59132812 28.1496875 12.05765625 28.799375 11.5078125 29.46875 C11.01023438 29.9740625 10.51265625 30.479375 10 31 C9.34 31 8.68 31 8 31 C7.67 31.66 7.34 32.32 7 33 C6.8125 30.625 6.8125 30.625 7 28 C7.99 27.34 8.98 26.68 10 26 C10.66 26.33 11.32 26.66 12 27 C12.08886184 23.80097361 11.91058531 21.07322544 11 18 C10.01 18.33 9.02 18.66 8 19 C7.74605469 18.28972656 7.49210938 17.57945312 7.23046875 16.84765625 C6.88628906 15.92855469 6.54210937 15.00945312 6.1875 14.0625 C5.85105469 13.14597656 5.51460937 12.22945312 5.16796875 11.28515625 C4.16590906 8.6659576 4.16590906 8.6659576 1 8 C0.67 5.36 0.34 2.72 0 0 Z " fill="#D16F5F" transform="translate(180,172)"/>
<path d="M0 0 C0.33 0.66 0.66 1.32 1 2 C-0.07408957 4.60474038 -1.20045633 7.09966038 -2.4375 9.625 C-2.77587891 10.33140625 -3.11425781 11.0378125 -3.46289062 11.765625 C-4.30154879 13.51381384 -5.14987847 15.25735686 -6 17 C-7.43836751 16.88541307 -8.87570966 16.75790884 -10.3125 16.625 C-11.11300781 16.55539063 -11.91351563 16.48578125 -12.73828125 16.4140625 C-15 16 -15 16 -18 14 C-16.35 14 -14.7 14 -13 14 C-12.71125 13.360625 -12.4225 12.72125 -12.125 12.0625 C-11 10 -11 10 -9 9 C-9 9.99 -9 10.98 -9 12 C-6.10067643 9.60490662 -5.49831724 7.68754757 -5 4 C-4.01 3.67 -3.02 3.34 -2 3 C-1.34 2.01 -0.68 1.02 0 0 Z " fill="#DE5643" transform="translate(267,173)"/>
<path d="M0 0 C4.67105792 1.55701931 8.08705685 4.08447373 12 7 C11.34 7.66 10.68 8.32 10 9 C9.3574765 11.06874034 9.3574765 11.06874034 9 13 C9.99 13 10.98 13 12 13 C12.33 13.99 12.66 14.98 13 16 C13.66 16.33 14.32 16.66 15 17 C15 17.66 15 18.32 15 19 C11.34061828 17.56835889 7.76011932 16.01065704 4.1875 14.375 C3.21167969 13.92898437 2.23585937 13.48296875 1.23046875 13.0234375 C0.49441406 12.68570313 -0.24164063 12.34796875 -1 12 C1.07553648 11.4465236 2.84365964 11 5 11 C5 8.69 5 6.38 5 4 C4.01 4 3.02 4 2 4 C2 3.34 2 2.68 2 2 C1.34 2 0.68 2 0 2 C0 1.34 0 0.68 0 0 Z " fill="#FBEBE5" transform="translate(146,193)"/>
<path d="M0 0 C0 9.24 0 18.48 0 28 C-0.66 28 -1.32 28 -2 28 C-2 19.42 -2 10.84 -2 2 C-2.99 2 -3.98 2 -5 2 C-5 2.66 -5 3.32 -5 4 C-6.98 4 -8.96 4 -11 4 C-11.33 4.66 -11.66 5.32 -12 6 C-12.99 5.34 -13.98 4.68 -15 4 C-13.25307205 3.32532438 -11.50231475 2.66055844 -9.75 2 C-8.77546875 1.62875 -7.8009375 1.2575 -6.796875 0.875 C-4 0 -4 0 0 0 Z " fill="#DF7A50" transform="translate(269,249)"/>
<path d="M0 0 C0.66 0.33 1.32 0.66 2 1 C1.66266846 1.44802979 1.32533691 1.89605957 0.9777832 2.35766602 C-0.57818877 4.42528524 -2.1328503 6.49388639 -3.6875 8.5625 C-4.21794922 9.26697266 -4.74839844 9.97144531 -5.29492188 10.69726562 C-7.85724843 14.1084611 -10.38491786 17.53234805 -12.83203125 21.02734375 C-13.54746094 22.00832031 -14.26289063 22.98929687 -15 24 C-15.33 24 -15.66 24 -16 24 C-16 22.35 -16 20.7 -16 19 C-15.01 19 -14.02 19 -13 19 C-13 18.01 -13 17.02 -13 16 C-12.34 16 -11.68 16 -11 16 C-11.33 13.69 -11.66 11.38 -12 9 C-11.34 9 -10.68 9 -10 9 C-9.67 8.01 -9.34 7.02 -9 6 C-9 6.99 -9 7.98 -9 9 C-8.34 9 -7.68 9 -7 9 C-7 8.01 -7 7.02 -7 6 C-6.38125 5.9175 -5.7625 5.835 -5.125 5.75 C-2.82618538 5.19392091 -2.82618538 5.19392091 -1.8125 3 C-1.544375 2.34 -1.27625 1.68 -1 1 C-0.67 0.67 -0.34 0.34 0 0 Z " fill="#DC9B50" transform="translate(163,352)"/>
<path d="M0 0 C11.22 0 22.44 0 34 0 C34 0.33 34 0.66 34 1 C33.28972656 1.06058594 32.57945313 1.12117188 31.84765625 1.18359375 C30.92855469 1.26738281 30.00945312 1.35117187 29.0625 1.4375 C28.14597656 1.51871094 27.22945312 1.59992188 26.28515625 1.68359375 C24.03840268 1.76044976 24.03840268 1.76044976 23 3 C14.96951792 3.41748684 6.97936415 2.89547974 -1 2 C-0.67 1.34 -0.34 0.68 0 0 Z " fill="#DF8159" transform="translate(89,256)"/>
<path d="M0 0 C0.51046875 0.23589844 1.0209375 0.47179687 1.546875 0.71484375 C-0.00679866 1.72850268 -1.57150336 2.72526631 -3.140625 3.71484375 C-4.44580078 4.55015625 -4.44580078 4.55015625 -5.77734375 5.40234375 C-8.62285837 6.79809983 -10.3319844 6.98478023 -13.453125 6.71484375 C-13.164375 7.40191406 -12.875625 8.08898437 -12.578125 8.796875 C-12.02125 10.14845703 -12.02125 10.14845703 -11.453125 11.52734375 C-11.081875 12.42066406 -10.710625 13.31398438 -10.328125 14.234375 C-9.453125 16.71484375 -9.453125 16.71484375 -9.453125 19.71484375 C-8.793125 20.04484375 -8.133125 20.37484375 -7.453125 20.71484375 C-6.828125 23.77734375 -6.828125 23.77734375 -6.453125 26.71484375 C-9.60135568 23.03383557 -11.27363675 18.87701641 -13.140625 14.46484375 C-13.46095703 13.71976563 -13.78128906 12.9746875 -14.11132812 12.20703125 C-14.89672163 10.37835384 -15.67557838 8.54687139 -16.453125 6.71484375 C-14.21005472 5.51234217 -11.9602459 4.32792755 -9.703125 3.15234375 C-8.75179687 2.63897461 -8.75179687 2.63897461 -7.78125 2.11523438 C-3.00217062 -0.34897843 -3.00217062 -0.34897843 0 0 Z " fill="#D25557" transform="translate(174.453125,88.28515625)"/>
<path d="M0 0 C1.75390625 1.64453125 1.75390625 1.64453125 3.5625 3.8125 C4.16191406 4.52019531 4.76132813 5.22789062 5.37890625 5.95703125 C7 8 7 8 9 11 C7.68 11.33 6.36 11.66 5 12 C4.67 10.35 4.34 8.7 4 7 C-0.53140653 6.06619039 -0.53140653 6.06619039 -5 7 C-7.00875442 6.72428861 -9.01178687 6.39764263 -11 6 C-3.6 0 -3.6 0 0 0 Z " fill="#D97D50" transform="translate(182,287)"/>
<path d="M0 0 C0.99 0.33 1.98 0.66 3 1 C0.96458105 3.08476244 -1.14139951 5.00524394 -3.375 6.875 C-5.60757505 8.76446351 -7.63570493 10.65048877 -9.6875 12.75 C-11.78316282 14.78902328 -13.24199896 16.08066632 -16 17 C-16.99 16.67 -17.98 16.34 -19 16 C-15.33776542 12.17255183 -11.48271604 8.92691496 -7.25 5.75 C-3.48676519 3.034049 -3.48676519 3.034049 0 0 Z " fill="#FAE9E4" transform="translate(309,192)"/>
<path d="M0 0 C0.66 0 1.32 0 2 0 C0.28137532 5.68468165 -2.1641675 10.98423881 -4.625 16.375 C-5.04523438 17.30183594 -5.46546875 18.22867188 -5.8984375 19.18359375 C-6.92964882 21.45694599 -7.96356863 23.72902406 -9 26 C-10.28317892 22.15046324 -10.06643637 19.05261865 -10 15 C-8.68 14.67 -7.36 14.34 -6 14 C-5.5978125 12.453125 -5.5978125 12.453125 -5.1875 10.875 C-4.10962187 7.08702827 -2.83683076 2.83683076 0 0 Z " fill="#D7574F" transform="translate(278,147)"/>
<path d="M0 0 C1.37589617 0.28740942 2.75067322 0.58017742 4.125 0.875 C4.89070313 1.03742188 5.65640625 1.19984375 6.4453125 1.3671875 C9.34134171 2.08455253 12.16955163 3.05651721 15 4 C15 10.6 15 17.2 15 24 C14.67 24 14.34 24 14 24 C14 17.73 14 11.46 14 5 C13.34 5 12.68 5 12 5 C12 11.27 12 17.54 12 24 C11.67 24 11.34 24 11 24 C10.67 17.4 10.34 10.8 10 4 C5.545 3.01 5.545 3.01 1 2 C0.67 1.34 0.34 0.68 0 0 Z " fill="#E99C92" transform="translate(272,232)"/>
<path d="M0 0 C0.33 0 0.66 0 1 0 C1.28169014 8.45070423 1.28169014 8.45070423 -1 12 C-1.37125 12.7425 -1.7425 13.485 -2.125 14.25 C-2.41375 14.8275 -2.7025 15.405 -3 16 C-3 15.34 -3 14.68 -3 14 C-3.66 14 -4.32 14 -5 14 C-4.34 15.65 -3.68 17.3 -3 19 C-5.475 18.01 -5.475 18.01 -8 17 C-6.3341708 10.83643195 -3.12194714 5.51740344 0 0 Z " fill="#E0A343" transform="translate(166,385)"/>
<path d="M0 0 C0.33 0 0.66 0 1 0 C1.21299844 8.68560302 1.04828859 17.2290243 0.125 25.875 C0.04652832 26.65343262 -0.03194336 27.43186523 -0.11279297 28.23388672 C-0.75210639 33.75210639 -0.75210639 33.75210639 -3 36 C-3.22222755 27.81358976 -2.55515163 19.92576053 -1.5 11.8125 C-1.35691406 10.66974609 -1.21382812 9.52699219 -1.06640625 8.34960938 C-0.71694735 5.56558681 -0.36138792 2.78249475 0 0 Z " fill="#FAE6CF" transform="translate(228,354)"/>
<path d="M0 0 C-2.63923648 2.63923648 -5.109276 3.20357312 -8.65234375 4.3828125 C-9.30828018 4.60194305 -9.96421661 4.82107361 -10.64002991 5.04684448 C-12.0268805 5.50857492 -13.41472323 5.96733449 -14.8034668 6.42333984 C-16.9283307 7.12198518 -19.04924504 7.83172864 -21.16992188 8.54296875 C-22.51800772 8.99025132 -23.86630819 9.43688764 -25.21484375 9.8828125 C-26.44323975 10.28902832 -27.67163574 10.69524414 -28.93725586 11.11376953 C-32 12 -32 12 -35 12 C-35 11.34 -35 10.68 -35 10 C-28.73 8.02 -22.46 6.04 -16 4 C-16 3.67 -16 3.34 -16 3 C-14.27318563 2.49193553 -12.54342021 1.99389533 -10.8125 1.5 C-9.36810547 1.08234375 -9.36810547 1.08234375 -7.89453125 0.65625 C-5.14654124 0.03322392 -2.80401584 -0.12302812 0 0 Z " fill="#E17352" transform="translate(282,238)"/>
<path d="M0 0 C2.31 0.33 4.62 0.66 7 1 C7 1.66 7 2.32 7 3 C7.96099609 3.07347656 7.96099609 3.07347656 8.94140625 3.1484375 C12.90601669 3.4911311 16.54751076 3.86592911 20.375 5 C25.52260646 6.42002937 30.68537384 6.66838129 36 7 C36 7.33 36 7.66 36 8 C23.45475617 8.57119997 10.98641666 7.50216496 0 1 C0 0.67 0 0.34 0 0 Z " fill="#E38E63" transform="translate(207,278)"/>
<path d="M0 0 C-0.33 0.99 -0.66 1.98 -1 3 C-1.66 3 -2.32 3 -3 3 C-2.67 4.32 -2.34 5.64 -2 7 C-3.98 7.99 -5.96 8.98 -8 10 C-8 9.34 -8 8.68 -8 8 C-8.66 8 -9.32 8 -10 8 C-9.34 10.64 -8.68 13.28 -8 16 C-10.0245738 14.06745228 -11.42105792 12.36841312 -13 10 C-13 9.01 -13 8.02 -13 7 C-10.6640625 5.17578125 -10.6640625 5.17578125 -7.625 3.3125 C-6.62726563 2.68988281 -5.62953125 2.06726563 -4.6015625 1.42578125 C-2 0 -2 0 0 0 Z " fill="#DD994A" transform="translate(104,336)"/>
<path d="M0 0 C1.32 0.33 2.64 0.66 4 1 C3.67 1.99 3.34 2.98 3 4 C5.64 4.33 8.28 4.66 11 5 C11.33 3.68 11.66 2.36 12 1 C15.57644848 -0.2380014 18.33694766 0.25073929 22 1 C17.35110822 4.78798589 13.14497704 6.19433901 7.1875 6.625 C6.21167969 6.69976562 5.23585938 6.77453125 4.23046875 6.8515625 C3.12638672 6.92503906 3.12638672 6.92503906 2 7 C2 5.02 2 3.04 2 1 C1.34 0.67 0.68 0.34 0 0 Z " fill="#E08741" transform="translate(75,312)"/>
<path d="M0 0 C1.32 0.33 2.64 0.66 4 1 C1.69 3.64 -0.62 6.28 -3 9 C-8.37985925 7.92402815 -9.48487252 6.91685634 -13 3 C-10.36 2.34 -7.72 1.68 -5 1 C-5 1.99 -5 2.98 -5 4 C-3.01508358 3.73323796 -3.01508358 3.73323796 -1 3 C-0.67 2.01 -0.34 1.02 0 0 Z " fill="#DB674D" transform="translate(183,205)"/>
<path d="M0 0 C2.9719385 1.12451727 5.33440687 2.22293791 8 4 C9.670625 4.4021875 9.670625 4.4021875 11.375 4.8125 C15.53686135 6.17586837 17.25594689 7.62873475 20 11 C20.70360343 12.65141286 21.37682718 14.31658744 22 16 C14.44851807 11.32596863 6.96582083 6.52415192 0 1 C0 0.67 0 0.34 0 0 Z " fill="#D76B54" transform="translate(132,182)"/>
<path d="M0 0 C0.99 0 1.98 0 3 0 C6 6.625 6 6.625 6 10 C6.66 10 7.32 10 8 10 C8.33 11.32 8.66 12.64 9 14 C9.99 14 10.98 14 12 14 C12 14.99 12 15.98 12 17 C12.15127402 18.56406528 12.31902522 20.12659252 12.5 21.6875 C12.5928125 22.49574219 12.685625 23.30398437 12.78125 24.13671875 C12.8534375 24.75160156 12.925625 25.36648437 13 26 C10.73623876 23.15437528 9.07302171 20.33499354 7.51953125 17.05078125 C6.85727539 15.65569336 6.85727539 15.65569336 6.18164062 14.23242188 C5.72982422 13.26884766 5.27800781 12.30527344 4.8125 11.3125 C4.34908203 10.33732422 3.88566406 9.36214844 3.40820312 8.35742188 C0 1.14447947 0 1.14447947 0 0 Z " fill="#D6584B" transform="translate(179,140)"/>
<path d="M0 0 C-3.10331066 1.79589737 -5.4376588 2.23717132 -9 2.375 C-15.41554167 2.84673101 -20.98910679 4.81890447 -27 7 C-31.01289406 8.37131272 -33.8409497 9.2459224 -38 8 C-25.35113274 3.18021886 -13.60850754 -0.24300906 0 0 Z " fill="#D35D5D" transform="translate(214,79)"/>
<path d="M0 0 C0.66 2.31 1.32 4.62 2 7 C-0.64738916 8.4606285 -1.89448334 9 -5 9 C-5.66 8.67 -6.32 8.34 -7 8 C-7 7.34 -7 6.68 -7 6 C-7.99 6.33 -8.98 6.66 -10 7 C-10 6.34 -10 5.68 -10 5 C-9.360625 4.71125 -8.72125 4.4225 -8.0625 4.125 C-5.84793921 3.17176549 -5.84793921 3.17176549 -5 1 C-2 0 -2 0 0 0 Z " fill="#EA4035" transform="translate(137,111)"/>
<path d="M0 0 C0.33 0.99 0.66 1.98 1 3 C2.07121094 3.13277344 3.14242187 3.26554687 4.24609375 3.40234375 C5.64325769 3.5805056 7.04039159 3.75890319 8.4375 3.9375 C9.14455078 4.02451172 9.85160156 4.11152344 10.58007812 4.20117188 C15.88671875 4.88671875 15.88671875 4.88671875 17 6 C17.04080783 7.99958364 17.04254356 10.00045254 17 12 C16.67 12 16.34 12 16 12 C16 10.35 16 8.7 16 7 C15.36835938 6.97421875 14.73671875 6.9484375 14.0859375 6.921875 C6.01900994 6.41042714 -1.30767701 4.41437875 -9 2 C-9.33 2.66 -9.66 3.32 -10 4 C-10 3.01 -10 2.02 -10 1 C-6.59437148 0.22157062 -3.49234244 -0.09978121 0 0 Z " fill="#FAE9DA" transform="translate(216,306)"/>
<path d="M0 0 C2 3 2 3 2 6 C1.01 6.66 0.02 7.32 -1 8 C-1.70211894 9.65204456 -2.36971413 11.31923769 -3 13 C-3.66 13.66 -4.32 14.32 -5 15 C-5.495 15.86625 -5.99 16.7325 -6.5 17.625 C-6.995 18.40875 -7.49 19.1925 -8 20 C-8.66 20 -9.32 20 -10 20 C-7.30482741 13.04471589 -3.99369088 6.3058277 0 0 Z " fill="#DB9652" transform="translate(188,344)"/>
<path d="M0 0 C3.79303725 1.00193437 6.71536341 1.81024227 10 4 C10 4.66 10 5.32 10 6 C12.64 5.34 15.28 4.68 18 4 C18 4.99 18 5.98 18 7 C17.01 7.495 17.01 7.495 16 8 C16.33 9.32 16.66 10.64 17 12 C16.34 12 15.68 12 15 12 C15 11.34 15 10.68 15 10 C14.28457031 9.74347656 13.56914063 9.48695313 12.83203125 9.22265625 C9.81303082 7.91928089 7.36653874 6.33862527 4.6875 4.4375 C3.80449219 3.81746094 2.92148438 3.19742188 2.01171875 2.55859375 C1.34785156 2.04425781 0.68398437 1.52992188 0 1 C0 0.67 0 0.34 0 0 Z " fill="#DE604D" transform="translate(110,167)"/>
<path d="M0 0 C0.99 0 1.98 0 3 0 C4.38226016 2.76452033 4.09525387 5.0461363 4.0625 8.125 C4.05347656 9.22070312 4.04445313 10.31640625 4.03515625 11.4453125 C4.02355469 12.28835938 4.01195312 13.13140625 4 14 C2.68 14 1.36 14 0 14 C0 9.38 0 4.76 0 0 Z " fill="#E93A37" transform="translate(283,257)"/>
<path d="M0 0 C0 0.66 0 1.32 0 2 C-1.11375 2.474375 -2.2275 2.94875 -3.375 3.4375 C-5.26710994 4.25306463 -7.15712709 5.07856355 -9 6 C-11.04055005 6.07065617 -13.08334257 6.08421976 -15.125 6.0625 C-16.22070312 6.05347656 -17.31640625 6.04445313 -18.4453125 6.03515625 C-19.70988281 6.01775391 -19.70988281 6.01775391 -21 6 C-21 5.34 -21 4.68 -21 4 C-20.37351563 3.95101562 -19.74703125 3.90203125 -19.1015625 3.8515625 C-18.28429687 3.77679688 -17.46703125 3.70203125 -16.625 3.625 C-15.81289062 3.55539063 -15.00078125 3.48578125 -14.1640625 3.4140625 C-11.79665809 3.17107412 -11.79665809 3.17107412 -10 1 C-6.62286946 0.08726202 -3.48722633 -0.09963504 0 0 Z " fill="#F9F5F3" transform="translate(253,251)"/>
<path d="M0 0 C-1.57017193 1.36940568 -3.15665391 2.72012895 -4.75 4.0625 C-5.63171875 4.81660156 -6.5134375 5.57070312 -7.421875 6.34765625 C-10 8 -10 8 -12.15625 7.9375 C-15.32738611 6.32505791 -16.85549061 3.79977615 -19 1 C-18.38125 1.33 -17.7625 1.66 -17.125 2 C-15.08981656 3.14193235 -15.08981656 3.14193235 -13 3 C-10.445356 1.97901878 -7.93061457 0.87981226 -5.41015625 -0.22265625 C-3 -1 -3 -1 0 0 Z " fill="#D8624F" transform="translate(300,200)"/>
<path d="M0 0 C0.99 0 1.98 0 3 0 C-0.83224419 8.23441188 -6.67174906 15.67365496 -12 23 C-12.66 21.68 -13.32 20.36 -14 19 C-12.68 18.67 -11.36 18.34 -10 18 C-10 16.68 -10 15.36 -10 14 C-9.34 14 -8.68 14 -8 14 C-8 13.01 -8 12.02 -8 11 C-7.01 11 -6.02 11 -5 11 C-4.731875 10.29875 -4.46375 9.5975 -4.1875 8.875 C-2.9318551 5.8350176 -1.49764877 2.9272226 0 0 Z " fill="#D38D5B" transform="translate(183,321)"/>
<path d="M0 0 C9.01508865 3.2939747 17.46871526 7.63909514 26 12 C26 12.33 26 12.66 26 13 C19.67934426 13.4957377 19.67934426 13.4957377 16.6875 11.3125 C15.3571875 10.1678125 15.3571875 10.1678125 14 9 C10.72651185 7.20813966 7.36621311 5.60921407 4 4 C2.66531441 3.33604473 1.33148322 2.67035414 0 2 C0 1.34 0 0.68 0 0 Z " fill="#D37059" transform="translate(87,176)"/>
<path d="M0 0 C0.99 0 1.98 0 3 0 C2.4520917 4.2829452 0.97567196 6.85135641 -1.5625 10.3125 C-2.20316406 11.19550781 -2.84382812 12.07851563 -3.50390625 12.98828125 C-3.99761719 13.65214844 -4.49132812 14.31601562 -5 15 C-7.475 14.01 -7.475 14.01 -10 13 C-9.38125 12.95875 -8.7625 12.9175 -8.125 12.875 C-7.42375 12.58625 -6.7225 12.2975 -6 12 C-5.26919734 10.02253397 -4.60578253 8.01927511 -4 6 C-2.4375 4.3125 -2.4375 4.3125 -1 3 C-0.67 2.01 -0.34 1.02 0 0 Z " fill="#DCA050" transform="translate(143,376)"/>
<path d="M0 0 C0.33 1.32 0.66 2.64 1 4 C1.66 4 2.32 4 3 4 C3.33 2.68 3.66 1.36 4 0 C4.99 0 5.98 0 7 0 C5.31326082 4.49797113 3.18326108 8.72886302 1 13 C0.67 13 0.34 13 0 13 C-0.39222105 11.58800422 -0.76311059 10.17007236 -1.125 8.75 C-1.33382812 7.96109375 -1.54265625 7.1721875 -1.7578125 6.359375 C-2.04314411 3.5796929 -1.44977894 2.34112451 0 0 Z " fill="#FAEFE6" transform="translate(197,314)"/>
<path d="M0 0 C-2.45199428 2.00787626 -4.91259376 4.00491174 -7.375 6 C-8.42300781 6.85851562 -8.42300781 6.85851562 -9.4921875 7.734375 C-10.1625 8.27578125 -10.8328125 8.8171875 -11.5234375 9.375 C-12.450354 10.12910156 -12.450354 10.12910156 -13.39599609 10.8984375 C-15 12 -15 12 -17 12 C-17 10.68 -17 9.36 -17 8 C-15.68 8 -14.36 8 -13 8 C-13 7.34 -13 6.68 -13 6 C-12.01 6 -11.02 6 -10 6 C-9.67 4.68 -9.34 3.36 -9 2 C-8.01 2 -7.02 2 -6 2 C-6 1.34 -6 0.68 -6 0 C-3.50907189 -1.24546405 -2.58919267 -0.7767578 0 0 Z " fill="#D56252" transform="translate(317,187)"/>
<path d="M0 0 C0.33 0 0.66 0 1 0 C1.08089542 2.77141717 1.14044062 5.54047819 1.1875 8.3125 C1.21263672 9.09818359 1.23777344 9.88386719 1.26367188 10.69335938 C1.27333984 11.45068359 1.28300781 12.20800781 1.29296875 12.98828125 C1.3086792 13.68477783 1.32438965 14.38127441 1.34057617 15.09887695 C0.89567045 17.58237578 -0.03357086 18.47101992 -2 20 C-2.66 20 -3.32 20 -4 20 C-4 19.34 -4 18.68 -4 18 C-5.12148437 18.34224609 -5.12148437 18.34224609 -6.265625 18.69140625 C-7.25046875 18.97886719 -8.2353125 19.26632813 -9.25 19.5625 C-10.22453125 19.85253906 -11.1990625 20.14257812 -12.203125 20.44140625 C-14.96243932 20.99249836 -16.3912824 20.93789609 -19 20 C-16.96185767 19.32263519 -14.91929445 18.65856466 -12.875 18 C-11.73804688 17.62875 -10.60109375 17.2575 -9.4296875 16.875 C-6 16 -6 16 0 16 C0 10.72 0 5.44 0 0 Z " fill="#FAD5CE" transform="translate(227,170)"/>
<path d="M0 0 C-2.78568205 2.17445127 -5.57949198 4.33820039 -8.375 6.5 C-9.56609375 7.43005859 -9.56609375 7.43005859 -10.78125 8.37890625 C-11.54179687 8.96542969 -12.30234375 9.55195313 -13.0859375 10.15625 C-13.7876709 10.70087891 -14.4894043 11.24550781 -15.21240234 11.80664062 C-17 13 -17 13 -19 13 C-19 12.01 -19 11.02 -19 10 C-18.01 9.67 -17.02 9.34 -16 9 C-15.67 8.01 -15.34 7.02 -15 6 C-13.35 6 -11.7 6 -10 6 C-10 5.01 -10 4.02 -10 3 C-6.70209424 0.0432569 -4.39002152 -1.46334051 0 0 Z " fill="#D65D53" transform="translate(336,173)"/>
<path d="M0 0 C0.99 0.66 1.98 1.32 3 2 C3.99 2 4.98 2 6 2 C6.33 4.31 6.66 6.62 7 9 C7.99 9.33 8.98 9.66 10 10 C10.33 10.99 10.66 11.98 11 13 C6.39137539 11.50897439 3.46669756 9.30545582 0 6 C0 5.01 0 4.02 0 3 C-0.99 2.67 -1.98 2.34 -3 2 C-2.01 1.34 -1.02 0.68 0 0 Z " fill="#E0A044" transform="translate(122,375)"/>
<path d="M0 0 C6.78661213 0.78914095 13.36149367 2.41274811 20 4 C20 4.33 20 4.66 20 5 C15.87268832 5.08972417 12.02923931 4.88200078 7.9375 4.3125 C3.46304719 3.8069893 0.84132203 4.47281445 -3 7 C-1.125 2.25 -1.125 2.25 0 0 Z " fill="#D58A5E" transform="translate(207,308)"/>
<path d="M0 0 C0.66 0.33 1.32 0.66 2 1 C1.67 1.33 1.34 1.66 1 2 C6.445 1.505 6.445 1.505 12 1 C8.53863978 3.59602016 5.80925951 5.1066975 1.875 6.75 C0.29332031 7.42289062 0.29332031 7.42289062 -1.3203125 8.109375 C-4 9 -4 9 -6 8 C-5.67 7.34 -5.34 6.68 -5 6 C-4.01 6 -3.02 6 -2 6 C-2 4.35 -2 2.7 -2 1 C-1.34 0.67 -0.68 0.34 0 0 Z " fill="#DB844C" transform="translate(114,299)"/>
<path d="M0 0 C0.33 0 0.66 0 1 0 C1 1.65 1 3.3 1 5 C0.01 4.67 -0.98 4.34 -2 4 C-2 5.65 -2 7.3 -2 9 C-2.66 9 -3.32 9 -4 9 C-4.33 10.32 -4.66 11.64 -5 13 C-6.32 13.33 -7.64 13.66 -9 14 C-8.67 15.32 -8.34 16.64 -8 18 C-8.99 17.67 -9.98 17.34 -11 17 C-9.56407335 12.88016856 -7.53749031 9.74182002 -4.9375 6.25 C-4.22464844 5.28578125 -3.51179688 4.3215625 -2.77734375 3.328125 C-1 1 -1 1 0 0 Z " fill="#D56154" transform="translate(102,138)"/>
<path d="M0 0 C0.33 0 0.66 0 1 0 C1.0749903 3.89949544 0.94008129 7.23967485 0 11 C-0.1421701 12.58567839 -0.24504041 14.17518632 -0.31640625 15.765625 C-0.35830078 16.65507812 -0.40019531 17.54453125 -0.44335938 18.4609375 C-0.50233398 19.84152344 -0.50233398 19.84152344 -0.5625 21.25 C-0.60568359 22.18585938 -0.64886719 23.12171875 -0.69335938 24.0859375 C-0.7991805 26.39048641 -0.90126557 28.69513839 -1 31 C-1.66 31 -2.32 31 -3 31 C-2.8896357 26.95779519 -2.75911994 22.91648085 -2.625 18.875 C-2.5940625 17.73289063 -2.563125 16.59078125 -2.53125 15.4140625 C-2.49257813 14.30546875 -2.45390625 13.196875 -2.4140625 12.0546875 C-2.3826416 11.03874512 -2.3512207 10.02280273 -2.31884766 8.97607422 C-1.97408555 5.75811858 -1.12449188 3.0262641 0 0 Z " fill="#D6724D" transform="translate(66,204)"/>
<path d="M0 0 C4.29 0.66 8.58 1.32 13 2 C13 2.99 13 3.98 13 5 C11.41705218 5.05437607 9.83355744 5.09296271 8.25 5.125 C7.36828125 5.14820313 6.4865625 5.17140625 5.578125 5.1953125 C2.8864142 4.99139502 1.30095026 4.36551721 -1 3 C-0.67 2.01 -0.34 1.02 0 0 Z " fill="#F9EDE4" transform="translate(218,250)"/>
<path d="M0 0 C-0.66 0.66 -1.32 1.32 -2 2 C-2.99 2 -3.98 2 -5 2 C-5 2.66 -5 3.32 -5 4 C-7.06081361 4.50690584 -9.12373526 5.00524619 -11.1875 5.5 C-12.91033203 5.91765625 -12.91033203 5.91765625 -14.66796875 6.34375 C-17.56818829 6.91495385 -20.06096385 7.13283779 -23 7 C-19.18007399 4.45338266 -15.27161817 3.25268782 -10.9375 1.8125 C-10.10927734 1.52697266 -9.28105469 1.24144531 -8.42773438 0.94726562 C-7.63560547 0.68236328 -6.84347656 0.41746094 -6.02734375 0.14453125 C-5.30281006 -0.09934326 -4.57827637 -0.34321777 -3.83178711 -0.59448242 C-2 -1 -2 -1 0 0 Z " fill="#E37157" transform="translate(229,223)"/>
<path d="M0 0 C5.73557393 0.63078307 11.26114438 1.61282705 16.875 2.9375 C17.63296875 3.10701172 18.3909375 3.27652344 19.171875 3.45117188 C24.75832063 4.75832063 24.75832063 4.75832063 27 7 C4.44360902 4.44360902 4.44360902 4.44360902 0 0 Z " fill="#D45558" transform="translate(260,80)"/>
<path d="M0 0 C6.41991126 0.57065878 12.01589463 2.67344909 18 5 C18 5.66 18 6.32 18 7 C18.99 7.33 19.98 7.66 21 8 C19 9 19 9 17.24414062 8.50268555 C16.21063477 8.07403198 16.21063477 8.07403198 15.15625 7.63671875 C14.40472656 7.32669922 13.65320313 7.01667969 12.87890625 6.69726562 C12.09386719 6.36404297 11.30882812 6.03082031 10.5 5.6875 C9.32244141 5.20506836 9.32244141 5.20506836 8.12109375 4.71289062 C2.26842093 2.26842093 2.26842093 2.26842093 0 0 Z " fill="#DFAE58" transform="translate(163,404)"/>
<path d="M0 0 C0.93972656 0.2165625 0.93972656 0.2165625 1.8984375 0.4375 C3.12433594 0.7159375 3.12433594 0.7159375 4.375 1 C5.18710938 1.185625 5.99921875 1.37125 6.8359375 1.5625 C8.95874951 2.06605239 8.95874951 2.06605239 11 2 C11.66 2 12.32 2 13 2 C13.66 4.64 14.32 7.28 15 10 C13.68 9.67 12.36 9.34 11 9 C11 8.34 11 7.68 11 7 C10.29875 6.7525 9.5975 6.505 8.875 6.25 C5.61912106 4.83440046 2.87631441 3.07362202 0 1 C0 0.67 0 0.34 0 0 Z " fill="#E06147" transform="translate(155,198)"/>
<path d="M0 0 C0.99 0.33 1.98 0.66 3 1 C0.03 7.6 -2.94 14.2 -6 21 C-7 17 -7 17 -6 14 C-5.34 14 -4.68 14 -4 14 C-4.226875 13.071875 -4.45375 12.14375 -4.6875 11.1875 C-5 8 -5 8 -3.6875 6.125 C-2 5 -2 5 0 5 C0 3.35 0 1.7 0 0 Z " fill="#D35252" transform="translate(295,108)"/>
<path d="M0 0 C-3.07725859 1.51270236 -6.16271269 3.00788581 -9.25 4.5 C-10.12269531 4.92925781 -10.99539062 5.35851562 -11.89453125 5.80078125 C-12.73886719 6.20683594 -13.58320313 6.61289062 -14.453125 7.03125 C-15.22817383 7.40830078 -16.00322266 7.78535156 -16.80175781 8.17382812 C-19 9 -19 9 -23 9 C-23 8.34 -23 7.68 -23 7 C-21.35 7 -19.7 7 -18 7 C-18 6.34 -18 5.68 -18 5 C-15.75564555 3.96483652 -13.50593133 2.94685023 -11.25 1.9375 C-10.29867187 1.49567383 -10.29867187 1.49567383 -9.328125 1.04492188 C-5.72555971 -0.5499638 -3.74166951 -1.20779945 0 0 Z " fill="#D78158" transform="translate(168,282)"/>
<path d="M0 0 C0.66 0.33 1.32 0.66 2 1 C2 1.66 2 2.32 2 3 C-0.64738916 4.4606285 -1.89448334 5 -5 5 C-5.20625 5.598125 -5.4125 6.19625 -5.625 6.8125 C-7.88400272 10.40636796 -11.4063751 11.53868753 -15.375 12.6875 C-15.91125 12.790625 -16.4475 12.89375 -17 13 C-13.50164156 9.29394681 -9.99149936 6.47800508 -5.6875 3.6875 C-4.08455078 2.64142578 -4.08455078 2.64142578 -2.44921875 1.57421875 C-1.64097656 1.05472656 -0.83273438 0.53523438 0 0 Z " fill="#D35E5B" transform="translate(137,107)"/>
<path d="M0 0 C0.66 1.32 1.32 2.64 2 4 C5.29427581 5.09809194 6.66411172 5.11196276 10 4 C9.75 5.875 9.75 5.875 9 8 C6.41847698 9.72101535 5.15081975 10 2 10 C1.34 6.7 0.68 3.4 0 0 Z " fill="#DE5B48" transform="translate(201,182)"/>
<path d="M0 0 C1.258125 -0.020625 2.51625 -0.04125 3.8125 -0.0625 C4.52019531 -0.07410156 5.22789062 -0.08570313 5.95703125 -0.09765625 C8 0 8 0 11 1 C11 2.98 11 4.96 11 7 C10.01 6.34 9.02 5.68 8 5 C7.01 5.99 6.02 6.98 5 8 C4.67 5.69 4.34 3.38 4 1 C2.68 0.67 1.36 0.34 0 0 Z " fill="#E27639" transform="translate(220,313)"/>
<path d="M0 0 C1 2 1 2 0.3125 5.4375 C-1.01895016 9.05143615 -1.66981109 10.23083714 -5 12 C-5.66 12 -6.32 12 -7 12 C-7 12.66 -7 13.32 -7 14 C-7.66 14 -8.32 14 -9 14 C-7.65070536 10.16336928 -5.92248975 7.34827431 -3.375 4.1875 C-2.42753906 3.00220703 -2.42753906 3.00220703 -1.4609375 1.79296875 C-0.97882813 1.20128906 -0.49671875 0.60960937 0 0 Z " fill="#FAE8DA" transform="translate(197,306)"/>
<path d="M0 0 C0.33 0 0.66 0 1 0 C1.33 4.62 1.66 9.24 2 14 C3.32 14 4.64 14 6 14 C6.33 9.71 6.66 5.42 7 1 C7.33 1 7.66 1 8 1 C8 5.62 8 10.24 8 15 C2 17 2 17 0 17 C0 11.39 0 5.78 0 0 Z " fill="#ECBCBC" transform="translate(281,259)"/>
<path d="M0 0 C0.33 0 0.66 0 1 0 C1 3.96 1 7.92 1 12 C2.32 12 3.64 12 5 12 C5 8.04 5 4.08 5 0 C5.33 0 5.66 0 6 0 C6 4.62 6 9.24 6 14 C4.35 14.33 2.7 14.66 1 15 C0 14 0 14 -0.09765625 10.83984375 C-0.08025391 8.90818359 -0.08025391 8.90818359 -0.0625 6.9375 C-0.05347656 5.64714844 -0.04445313 4.35679687 -0.03515625 3.02734375 C-0.02355469 2.02832031 -0.01195312 1.02929688 0 0 Z " fill="#CD494A" transform="translate(282,259)"/>
<path d="M0 0 C0.33 1.32 0.66 2.64 1 4 C0.01 4.495 0.01 4.495 -1 5 C-2.05352843 7.30965848 -3.05719096 9.6429774 -4 12 C-4.66 12 -5.32 12 -6 12 C-6.103125 12.763125 -6.20625 13.52625 -6.3125 14.3125 C-7.04364039 17.17059424 -7.76951913 18.15742885 -10 20 C-10.33 19.34 -10.66 18.68 -11 18 C-10.21142578 16.22827148 -10.21142578 16.22827148 -8.9453125 14.12109375 C-8.49542969 13.36505859 -8.04554688 12.60902344 -7.58203125 11.83007812 C-7.10121094 11.04052734 -6.62039063 10.25097656 -6.125 9.4375 C-5.65191406 8.64408203 -5.17882812 7.85066406 -4.69140625 7.03320312 C-1.18620069 1.18620069 -1.18620069 1.18620069 0 0 Z " fill="#D35357" transform="translate(316,112)"/>
<path d="M0 0 C-0.66 1.32 -1.32 2.64 -2 4 C-4.45840605 4.02691685 -6.91651882 4.04679802 -9.375 4.0625 C-10.07367188 4.07087891 -10.77234375 4.07925781 -11.4921875 4.08789062 C-16.7734375 4.11328125 -16.7734375 4.11328125 -19 3 C-19 2.34 -19 1.68 -19 1 C-18.33613281 1.09539062 -17.67226562 1.19078125 -16.98828125 1.2890625 C-10.56486542 2.09550595 -6.10732027 0 0 0 Z " fill="#E07D58" transform="translate(248,256)"/>
<path d="M0 0 C4.75543183 5.77445294 8.2525092 10.71878833 10 18 C9.34 18.33 8.68 18.66 8 19 C7.74605469 18.28972656 7.49210938 17.57945312 7.23046875 16.84765625 C6.88628906 15.92855469 6.54210937 15.00945312 6.1875 14.0625 C5.85105469 13.14597656 5.51460937 12.22945312 5.16796875 11.28515625 C4.16590906 8.6659576 4.16590906 8.6659576 1 8 C0.67 5.36 0.34 2.72 0 0 Z " fill="#D56859" transform="translate(180,172)"/>
<path d="M0 0 C1.32 0 2.64 0 4 0 C5.703125 1.96875 5.703125 1.96875 7.25 4.5 C8.03117188 5.75296875 8.03117188 5.75296875 8.828125 7.03125 C9.21484375 7.6809375 9.6015625 8.330625 10 9 C9.67 9.66 9.34 10.32 9 11 C8.1028125 10.2884375 8.1028125 10.2884375 7.1875 9.5625 C4.99617076 7.83534256 4.99617076 7.83534256 2 7 C0.8125 3.4375 0.8125 3.4375 0 0 Z " fill="#DF4C4A" transform="translate(136,110)"/>
<path d="M0 0 C0.66 0.66 1.32 1.32 2 2 C1.67 2.99 1.34 3.98 1 5 C1.66 5 2.32 5 3 5 C3.5625 6.9375 3.5625 6.9375 4 9 C3 10 3 10 0.5625 10.1875 C-2 10 -2 10 -4 8 C-4 7.01 -4 6.02 -4 5 C-3.01 5 -2.02 5 -1 5 C-0.67 3.35 -0.34 1.7 0 0 Z " fill="#E5A231" transform="translate(165,394)"/>
<path d="M0 0 C-2.56564811 2.56564811 -4.47920562 3.13640893 -8 4 C-14.42857143 3.57142857 -14.42857143 3.57142857 -17 1 C-11.29309366 0.00749455 -5.78591511 -0.10477512 0 0 Z " fill="#E47753" transform="translate(246,250)"/>
<path d="M0 0 C2.35171131 0.59861742 4.6859378 1.26924352 7 2 C7.33 2.66 7.66 3.32 8 4 C3.25 3.125 3.25 3.125 1 2 C1.33 3.32 1.66 4.64 2 6 C1.21625 6.598125 0.4325 7.19625 -0.375 7.8125 C-3.14574323 9.91085249 -3.14574323 9.91085249 -5 13 C-4.39254603 8.14036821 -2.27241033 4.2594482 0 0 Z " fill="#D36D5A" transform="translate(78,172)"/>
<path d="M0 0 C0.66 0.33 1.32 0.66 2 1 C-1.49087093 5.0042343 -3.64951939 6.62671065 -9 7 C-9.33 7.99 -9.66 8.98 -10 10 C-11.32 9.67 -12.64 9.34 -14 9 C-11.71439353 7.4693001 -9.42237333 5.95034956 -7.125 4.4375 C-6.14853516 3.78104492 -6.14853516 3.78104492 -5.15234375 3.11132812 C-3.47374503 2.01245164 -1.73976613 0.9992182 0 0 Z " fill="#DA9058" transform="translate(132,317)"/>
<path d="M0 0 C5.92781843 0.1261238 11.62689225 2.50195318 17.1875 4.375 C17.1875 4.705 17.1875 5.035 17.1875 5.375 C9.83721227 4.49296547 2.51400983 3.43487432 -4.8125 2.375 C-2.8125 0.375 -2.8125 0.375 0 0 Z " fill="#E36E56" transform="translate(234.8125,219.625)"/>
<path d="M0 0 C4.62 1.65 9.24 3.3 14 5 C10.71299843 6.64350079 8.52069985 7.41321669 5 8 C5 7.01 5 6.02 5 5 C4.34 5 3.68 5 3 5 C3 4.01 3 3.02 3 2 C2.01 2 1.02 2 0 2 C0 1.34 0 0.68 0 0 Z " fill="#FBF1E0" transform="translate(168,407)"/>
<path d="M0 0 C1.32 0.66 2.64 1.32 4 2 C3.360625 2.53625 2.72125 3.0725 2.0625 3.625 C-0.38529404 6.44367193 -0.66714612 8.33860732 -1 12 C-1.66 12 -2.32 12 -3 12 C-3 10.02 -3 8.04 -3 6 C-4.98 5.01 -6.96 4.02 -9 3 C-5.67465243 1.89155081 -3.37817425 2.15545644 0 3 C0 2.01 0 1.02 0 0 Z " fill="#FAE5DE" transform="translate(176,213)"/>
<path d="M0 0 C0.99 0.495 0.99 0.495 2 1 C1.99476318 1.70608398 1.98952637 2.41216797 1.98413086 3.13964844 C1.96332587 6.34308988 1.95032859 9.5465171 1.9375 12.75 C1.92912109 13.86117188 1.92074219 14.97234375 1.91210938 16.1171875 C1.90888672 17.18710937 1.90566406 18.25703125 1.90234375 19.359375 C1.89710693 20.34389648 1.89187012 21.32841797 1.88647461 22.34277344 C1.98840897 24.72869514 2.31696643 26.72164581 3 29 C2.01 28.67 1.02 28.34 0 28 C0 18.76 0 9.52 0 0 Z " fill="#D97853" transform="translate(204,249)"/>
<path d="M0 0 C2.83967231 0 5.23735711 0.40267181 8 1 C7.67 2.32 7.34 3.64 7 5 C5.35 5.33 3.7 5.66 2 6 C2 5.34 2 4.68 2 4 C1.01 3.67 0.02 3.34 -1 3 C-0.67 2.01 -0.34 1.02 0 0 Z " fill="#F7F7F7" transform="translate(159,206)"/>
<path d="M0 0 C0.66 0 1.32 0 2 0 C2 0.66 2 1.32 2 2 C2.66 2.33 3.32 2.66 4 3 C3.566875 3.37125 3.13375 3.7425 2.6875 4.125 C0.53847015 6.51281095 -0.64757984 9.1019568 -2 12 C-3.65 11.67 -5.3 11.34 -7 11 C-6.34 10.34 -5.68 9.68 -5 9 C-4.01 9 -3.02 9 -2 9 C-1.34 6.03 -0.68 3.06 0 0 Z " fill="#E69C2F" transform="translate(139,376)"/>
<path d="M0 0 C7.34686463 1.21119677 14.07189348 3.28671113 21 6 C21 6.33 21 6.66 21 7 C13.14659686 7.39267016 13.14659686 7.39267016 9 4 C6.04410545 2.85478431 3.03442877 1.91421893 0 1 C0 0.67 0 0.34 0 0 Z " fill="#E07E58" transform="translate(207,250)"/>
<path d="M0 0 C6.85921925 1.61191652 13.46207289 3.35968328 20 6 C16.08263419 7.1700097 13.02040985 6.69584017 9 6 C9 5.34 9 4.68 9 4 C8.071875 3.896875 7.14375 3.79375 6.1875 3.6875 C2.85034764 2.96772204 2.16813468 2.42857128 0 0 Z " fill="#DF6D54" transform="translate(252,225)"/>
<path d="M0 0 C2.93015334 0.6452922 5.48756475 1.5680895 8.1875 2.875 C9.22970703 3.36613281 9.22970703 3.36613281 10.29296875 3.8671875 C12 5 12 5 13 8 C12.0625 10.1875 12.0625 10.1875 11 12 C11 10.02 11 8.04 11 6 C10.484375 5.87625 9.96875 5.7525 9.4375 5.625 C6.27297649 4.81358372 3.13875015 3.9054087 0 3 C0 2.01 0 1.02 0 0 Z " fill="#D47056" transform="translate(161,213)"/>
<path d="M0 0 C6.875 3.75 6.875 3.75 8 6 C7.01 6 6.02 6 5 6 C5 5.34 5 4.68 5 4 C3.35 4.33 1.7 4.66 0 5 C0 5.99 0 6.98 0 8 C-1.98 7.34 -3.96 6.68 -6 6 C-5.34 5.34 -4.68 4.68 -4 4 C-3.01 4 -2.02 4 -1 4 C-0.67 2.68 -0.34 1.36 0 0 Z " fill="#FAE6DD" transform="translate(167,207)"/>
<path d="M0 0 C0.33 0 0.66 0 1 0 C1.7342166 6.75479274 -0.72408048 11.18524285 -4 17 C-5.6852084 12.92320841 -4.16939007 10.16924407 -2.5625 6.25 C-2.08941406 5.07953125 -1.61632812 3.9090625 -1.12890625 2.703125 C-0.75636719 1.81109375 -0.38382812 0.9190625 0 0 Z " fill="#D76F54" transform="translate(72,185)"/>
<path d="M0 0 C0.99 0.33 1.98 0.66 3 1 C3.6875 3.0625 3.6875 3.0625 4 5 C2.02 5.99 0.04 6.98 -2 8 C-2 7.01 -2 6.02 -2 5 C-2.66 4.67 -3.32 4.34 -4 4 C-3.67 3.34 -3.34 2.68 -3 2 C-2.01 2 -1.02 2 0 2 C0 1.34 0 0.68 0 0 Z " fill="#DA4E4E" transform="translate(369,140)"/>
<path d="M0 0 C0.62109375 1.8125 0.62109375 1.8125 1 4 C-0.30406884 6.01920337 -1.63823419 8.01924973 -3 10 C-3 11.32 -3 12.64 -3 14 C-3.99 14.495 -3.99 14.495 -5 15 C-5.66 14.67 -6.32 14.34 -7 14 C-5.53967505 8.68972746 -3.01679014 4.53669968 0 0 Z " fill="#D3665B" transform="translate(276,180)"/>
<path d="M0 0 C0.12375 0.639375 0.2475 1.27875 0.375 1.9375 C0.684375 2.9584375 0.684375 2.9584375 1 4 C1.66 4.33 2.32 4.66 3 5 C1.68 5.33 0.36 5.66 -1 6 C-0.67 7.65 -0.34 9.3 0 11 C-0.99 11 -1.98 11 -3 11 C-3 11.66 -3 12.32 -3 13 C-3.66 13 -4.32 13 -5 13 C-3.78184562 8.31479085 -2.30440013 4.29456388 0 0 Z " fill="#FCE5E3" transform="translate(266,177)"/>
<path d="M0 0 C5.83096952 3.10157953 10.86601899 6.85556181 16 11 C15.01 11.495 15.01 11.495 14 12 C9.33219307 10.13287723 6.42972389 7.61511437 3 4 C2.01 3.34 1.02 2.68 0 2 C0 1.34 0 0.68 0 0 Z " fill="#D35654" transform="translate(334,107)"/>
<path d="M0 0 C0.33 0 0.66 0 1 0 C1.20190089 6.35987804 0.6277833 11.85221129 -1 18 C-1.33 18 -1.66 18 -2 18 C-2.2361959 11.59646678 -1.823321 6.15370839 0 0 Z " fill="#DA9749" transform="translate(225,370)"/>
<path d="M0 0 C0.33 0 0.66 0 1 0 C1.09038099 5.15171623 0.84681133 9.91913204 0 15 C-0.99 15 -1.98 15 -3 15 C-2.44854729 9.76119922 -1.57077907 5.02649303 0 0 Z " fill="#E47B36" transform="translate(229,321)"/>
<path d="M0 0 C1.9451 2.91765 2.45276317 4.62537285 3 8 C1.1875 9.0625 1.1875 9.0625 -1 10 C-1.99 9.67 -2.98 9.34 -4 9 C-4 7.68 -4 6.36 -4 5 C-2.68 5.33 -1.36 5.66 0 6 C0 4.02 0 2.04 0 0 Z " fill="#D67C51" transform="translate(172,271)"/>
<path d="M0 0 C-1.18676066 4.10801767 -1.89448334 5.89448334 -5 9 C-5.33 6.03 -5.66 3.06 -6 0 C-3.50907189 -1.24546405 -2.58919267 -0.7767578 0 0 Z " fill="#FBEAE7" transform="translate(319,106)"/>
<path d="M0 0 C0 1.98 0 3.96 0 6 C4.455 5.505 4.455 5.505 9 5 C6.3144406 7.6855594 3.62378672 8.06049974 0 9 C-3 3.25 -3 3.25 -3 1 C-1 0 -1 0 0 0 Z " fill="#D4925D" transform="translate(77,313)"/>
<path d="M0 0 C2.875 0.25 2.875 0.25 6 1 C7.375 3.0625 7.375 3.0625 8 5 C5.36 5 2.72 5 0 5 C0 3.35 0 1.7 0 0 Z " fill="#FAF0EB" transform="translate(204,244)"/>
<path d="M0 0 C1.36421031 2.72842061 0.87807211 4.60953318 0.5625 7.625 C0.40974609 9.12933594 0.40974609 9.12933594 0.25390625 10.6640625 C0.17011719 11.43492187 0.08632813 12.20578125 0 13 C-0.99 13 -1.98 13 -3 13 C-2.88557539 11.39504433 -2.75805306 9.79101881 -2.625 8.1875 C-2.55539062 7.29417969 -2.48578125 6.40085938 -2.4140625 5.48046875 C-2 3 -2 3 0 0 Z " fill="#DF533C" transform="translate(279,175)"/>
<path d="M0 0 C2.39073149 2.93189994 3.84107307 5.72143288 5.1875 9.25 C5.53167969 10.14203125 5.87585938 11.0340625 6.23046875 11.953125 C6.48441406 12.62859375 6.73835937 13.3040625 7 14 C6.34 14 5.68 14 5 14 C4.67 14.99 4.34 15.98 4 17 C4 14.36 4 11.72 4 9 C3.01 8.67 2.02 8.34 1 8 C0.67 5.36 0.34 2.72 0 0 Z " fill="#FCE5E0" transform="translate(195,175)"/>
<path d="M0 0 C0.66 0.33 1.32 0.66 2 1 C-0.64 5.62 -3.28 10.24 -6 15 C-6.33 15 -6.66 15 -7 15 C-7.46174018 10.42382495 -6.21158892 8.3190923 -3.5 4.6875 C-2.8503125 3.80449219 -2.200625 2.92148438 -1.53125 2.01171875 C-1.0259375 1.34785156 -0.520625 0.68398437 0 0 Z " fill="#FCE4E1" transform="translate(290,153)"/>
<path d="M0 0 C0.33 0.66 0.66 1.32 1 2 C-0.38542316 5.62848922 -1.84351662 8.76527494 -4 12 C-4.66 12 -5.32 12 -6 12 C-6 12.66 -6 13.32 -6 14 C-6.66 13.67 -7.32 13.34 -8 13 C-5.36 8.71 -2.72 4.42 0 0 Z " fill="#D45B57" transform="translate(303,134)"/>
<path d="M0 0 C1.32 0.33 2.64 0.66 4 1 C3.34580901 6.06998019 1.1453591 10.41990777 -1 15 C-2 12 -2 12 -1.0625 9.75 C0.23961555 6.37981859 0.14047634 3.58214661 0 0 Z " fill="#CF5153" transform="translate(300,92)"/>
<path d="M0 0 C1.65 0 3.3 0 5 0 C2.77810176 2.22189824 0.91517292 2.92598892 -2 4 C-1.34 2.68 -0.68 1.36 0 0 Z M-4 4 C-3.34 4.33 -2.68 4.66 -2 5 C-4.625 8.875 -4.625 8.875 -8 10 C-6.25 5.125 -6.25 5.125 -4 4 Z " fill="#E47334" transform="translate(171,293)"/>
<path d="M0 0 C0.33 0.66 0.66 1.32 1 2 C0.67 2.99 0.34 3.98 0 5 C-0.99 5 -1.98 5 -3 5 C-3.061875 5.61875 -3.12375 6.2375 -3.1875 6.875 C-4 9 -4 9 -6.5625 10.25 C-7.366875 10.4975 -8.17125 10.745 -9 11 C-7.59155282 7.78475695 -5.89655214 5.67816132 -3.375 3.25 C-2.74335937 2.63640625 -2.11171875 2.0228125 -1.4609375 1.390625 C-0.73777344 0.70226562 -0.73777344 0.70226562 0 0 Z " fill="#D45B50" transform="translate(112,127)"/>
<path d="M0 0 C1.32 0.33 2.64 0.66 4 1 C3.01 1.495 3.01 1.495 2 2 C1.87625 2.598125 1.7525 3.19625 1.625 3.8125 C0.78850529 6.7402315 -0.70682772 8.05427807 -3 10 C-3.66 10 -4.32 10 -5 10 C-3.66511872 6.40608886 -2.03977277 3.24509304 0 0 Z " fill="#D25557" transform="translate(322,101)"/>
<path d="M0 0 C1.1875 1.6875 1.1875 1.6875 2 4 C0.625 6.75 0.625 6.75 -1 9 C-2.32 8.34 -3.64 7.68 -5 7 C-4.34 6.67 -3.68 6.34 -3 6 C-2.29788106 4.34795544 -1.63028587 2.68076231 -1 1 C-0.67 0.67 -0.34 0.34 0 0 Z " fill="#FAF1E2" transform="translate(141,385)"/>
<path d="M0 0 C1.65 0.99 3.3 1.98 5 3 C4.39305845 6.15330554 3.3583335 8.18888867 1.4375 10.75 C0.75494141 11.67039062 0.75494141 11.67039062 0.05859375 12.609375 C-0.29074219 13.06828125 -0.64007813 13.5271875 -1 14 C-1.33 12.68 -1.66 11.36 -2 10 C-1.360625 9.773125 -0.72125 9.54625 -0.0625 9.3125 C2.27193661 8.14749104 2.27193661 8.14749104 2.75 5.375 C2.8325 4.59125 2.915 3.8075 3 3 C2.01 2.67 1.02 2.34 0 2 C0 1.34 0 0.68 0 0 Z " fill="#D68158" transform="translate(193,300)"/>
<path d="M0 0 C0.66 0 1.32 0 2 0 C2 0.66 2 1.32 2 2 C3.1446875 2.4021875 3.1446875 2.4021875 4.3125 2.8125 C6.87380884 3.94424112 8.19692938 4.91223401 10 7 C5.25 5.125 5.25 5.125 3 4 C3 4.66 3 5.32 3 6 C2.01 5.67 1.02 5.34 0 5 C-0.75 3 -0.75 3 -1 1 C-0.67 0.67 -0.34 0.34 0 0 Z " fill="#FCEBE7" transform="translate(123,177)"/>
<path d="M0 0 C0.33 0 0.66 0 1 0 C1 1.65 1 3.3 1 5 C1.66 5.33 2.32 5.66 3 6 C2.01 6.33 1.02 6.66 0 7 C-0.66 6.67 -1.32 6.34 -2 6 C-2.33 7.65 -2.66 9.3 -3 11 C-3.66 11 -4.32 11 -5 11 C-3.77782954 6.95743617 -2.37245704 3.50711041 0 0 Z " fill="#DB9057" transform="translate(198,325)"/>
<path d="M0 0 C0.66 0.33 1.32 0.66 2 1 C-0.82506863 3.9297008 -3.78796065 6.50174717 -7 9 C-7.99 8.34 -8.98 7.68 -10 7 C-6.7 4.69 -3.4 2.38 0 0 Z " fill="#DA8557" transform="translate(169,293)"/>
<path d="M0 0 C1.32 0.33 2.64 0.66 4 1 C0.50370454 4.08496658 -2.43587428 5.93180036 -7 7 C-9.375 6.625 -9.375 6.625 -11 6 C-9.02 5.67 -7.04 5.34 -5 5 C-5 4.34 -5 3.68 -5 3 C-3.35 3 -1.7 3 0 3 C0 2.01 0 1.02 0 0 Z " fill="#DF8659" transform="translate(264,276)"/>
<path d="M0 0 C1.98 0.99 1.98 0.99 4 2 C4 2.99 4 3.98 4 5 C4.99 5 5.98 5 7 5 C7.66 6.98 8.32 8.96 9 11 C8.01 11.495 8.01 11.495 7 12 C5.83061933 10.18924982 4.66456267 8.37635257 3.5 6.5625 C2.8503125 5.55316406 2.200625 4.54382813 1.53125 3.50390625 C0 1 0 1 0 0 Z " fill="#FCE1DE" transform="translate(158,138)"/>
<path d="M0 0 C0.99 0 1.98 0 3 0 C3 0.99 3 1.98 3 3 C3.66 3 4.32 3 5 3 C5.33 5.97 5.66 8.94 6 12 C3.25207517 8.59780735 0 4.51535412 0 0 Z " fill="#D65250" transform="translate(168,116)"/>
<path d="M0 0 C6.75 0.75 6.75 0.75 9 3 C8.113125 2.95875 7.22625 2.9175 6.3125 2.875 C3.02722987 2.99897246 0.94550705 3.61387904 -2 5 C-2 4.01 -2 3.02 -2 2 C-1.34 2 -0.68 2 0 2 C0 1.34 0 0.68 0 0 Z " fill="#FBF2EC" transform="translate(256,247)"/>
<path d="M0 0 C0.33 0 0.66 0 1 0 C1 2.31 1 4.62 1 7 C5.29 7.33 9.58 7.66 14 8 C14 8.33 14 8.66 14 9 C12.04235617 9.19456705 10.08384679 9.38044247 8.125 9.5625 C7.03445312 9.66691406 5.94390625 9.77132812 4.8203125 9.87890625 C2 10 2 10 0 9 C0 6.03 0 3.06 0 0 Z " fill="#F4D0C8" transform="translate(235,179)"/>
<path d="M0 0 C1.5 1.375 1.5 1.375 3 3 C3 3.66 3 4.32 3 5 C3.66 5 4.32 5 5 5 C4.67 5.99 4.34 6.98 4 8 C3.34 7.67 2.68 7.34 2 7 C2 6.01 2 5.02 2 4 C1.34 4 0.68 4 0 4 C-0.33 4.99 -0.66 5.98 -1 7 C-1.66 7 -2.32 7 -3 7 C-1.125 1.125 -1.125 1.125 0 0 Z " fill="#DF5244" transform="translate(283,168)"/>
<path d="M0 0 C5.75 -0.125 5.75 -0.125 8 1 C7.67 2.32 7.34 3.64 7 5 C4.625 4.75 4.625 4.75 2 4 C0.6875 1.9375 0.6875 1.9375 0 0 Z " fill="#E29640" transform="translate(96,352)"/>
<path d="M0 0 C2.64 1.65 5.28 3.3 8 5 C6.68 5.33 5.36 5.66 4 6 C4 5.34 4 4.68 4 4 C2.02 4.33 0.04 4.66 -2 5 C-2.33 4.34 -2.66 3.68 -3 3 C-2.01 2.67 -1.02 2.34 0 2 C0 1.34 0 0.68 0 0 Z " fill="#FCEBE5" transform="translate(112,169)"/>
<path d="M0 0 C0.97099482 2.62168601 1.06599958 3.79692438 0.1875 6.5 C-0.84880972 8.68170468 -1.88817428 10.85576468 -3 13 C-3.66 13 -4.32 13 -5 13 C-4.54554036 11.58208592 -4.08625056 10.16571954 -3.625 8.75 C-3.24214844 7.56664062 -3.24214844 7.56664062 -2.8515625 6.359375 C-2.04826333 4.13372042 -1.10288338 2.09068328 0 0 Z " fill="#FDE4DE" transform="translate(278,151)"/>
<path d="M0 0 C0.33 0 0.66 0 1 0 C1 1.65 1 3.3 1 5 C0.34 5 -0.32 5 -1 5 C-0.34 7.31 0.32 9.62 1 12 C-1.475 11.01 -1.475 11.01 -4 10 C-2.8905928 6.51329166 -1.73662334 3.22515763 0 0 Z " fill="#D6AD64" transform="translate(162,392)"/>
<path d="M0 0 C0.66 0.33 1.32 0.66 2 1 C0.22972246 5.60272162 -1.18699218 8.7129243 -5 12 C-5.33 10.68 -5.66 9.36 -6 8 C-4.68 7.67 -3.36 7.34 -2 7 C-2 5.68 -2 4.36 -2 3 C-1.34 3 -0.68 3 0 3 C0 2.01 0 1.02 0 0 Z " fill="#D98D4F" transform="translate(175,332)"/>
<path d="M0 0 C-0.33 0.99 -0.66 1.98 -1 3 C-3.64 2.67 -6.28 2.34 -9 2 C-9 1.34 -9 0.68 -9 0 C-5.93109813 -1.53445094 -3.29905734 -0.54984289 0 0 Z " fill="#ED812E" transform="translate(87,314)"/>
<path d="M0 0 C0.66 0.33 1.32 0.66 2 1 C-0.53645881 4.10011632 -3.15184135 5.0575938 -7 6 C-9.19140625 5.546875 -9.19140625 5.546875 -11 5 C-9.21289414 4.13633178 -7.4201535 3.28431406 -5.625 2.4375 C-4.62726563 1.96183594 -3.62953125 1.48617188 -2.6015625 0.99609375 C-1.74304688 0.66738281 -0.88453125 0.33867187 0 0 Z " fill="#FCE5D8" transform="translate(164,283)"/>
<path d="M0 0 C3.79303725 1.00193437 6.71536341 1.81024227 10 4 C9.67 4.99 9.34 5.98 9 7 C7.4972763 6.02501855 5.99788037 5.04490611 4.5 4.0625 C3.6646875 3.51722656 2.829375 2.97195312 1.96875 2.41015625 C1.3190625 1.94480469 0.669375 1.47945312 0 1 C0 0.67 0 0.34 0 0 Z " fill="#D46552" transform="translate(110,167)"/>
<path d="M0 0 C5.46788524 2.0309288 9.73597333 4.01806456 13 9 C9.91220974 7.53400783 7.09532795 5.82973607 4.25 3.9375 C3.45078125 3.41027344 2.6515625 2.88304687 1.828125 2.33984375 C1.22484375 1.89769531 0.6215625 1.45554688 0 1 C0 0.67 0 0.34 0 0 Z " fill="#D36E5F" transform="translate(94,156)"/>
<path d="M0 0 C1.62723299 0.45034123 3.25173664 0.91055354 4.875 1.375 C5.77992188 1.63023438 6.68484375 1.88546875 7.6171875 2.1484375 C10 3 10 3 12 5 C11 6 11 6 8.4375 6.0625 C7.2309375 6.0315625 7.2309375 6.0315625 6 6 C5.34 4.68 4.68 3.36 4 2 C2.68 2 1.36 2 0 2 C0 1.34 0 0.68 0 0 Z " fill="#D24A48" transform="translate(288,87)"/>
<path d="M0 0 C0.66 0 1.32 0 2 0 C2 0.66 2 1.32 2 2 C4.475 2.99 4.475 2.99 7 4 C7 5.98 7 7.96 7 10 C3.72713318 7.2180632 2.03572303 3.72045933 0 0 Z " fill="#FCE2DF" transform="translate(167,152)"/>
<path d="M0 0 C-0.33 1.98 -0.66 3.96 -1 6 C-2.32 6.33 -3.64 6.66 -5 7 C-4.625 4.0625 -4.625 4.0625 -4 1 C-2 0 -2 0 0 0 Z " fill="#E49B35" transform="translate(223,397)"/>
<path d="M0 0 C0.99 0.33 1.98 0.66 3 1 C1.68 3.64 0.36 6.28 -1 9 C-1.66 7.68 -2.32 6.36 -3 5 C-2 2 -2 2 0 0 Z " fill="#FAEBDD" transform="translate(189,337)"/>
<path d="M0 0 C0.66 0.33 1.32 0.66 2 1 C1.2884375 1.6496875 1.2884375 1.6496875 0.5625 2.3125 C-1.23686957 4.02309613 -1.23686957 4.02309613 -2 7 C-5.875 5.25 -5.875 5.25 -7 3 C-4.69631264 1.93347808 -2.35981813 0.93578995 0 0 Z " fill="#F9E9DE" transform="translate(173,279)"/>
<path d="M0 0 C0.66 0 1.32 0 2 0 C1.34 3.96 0.68 7.92 0 12 C-0.33 12 -0.66 12 -1 12 C-1.02687279 10.18757948 -1.04633715 8.37504767 -1.0625 6.5625 C-1.07410156 5.55316406 -1.08570313 4.54382813 -1.09765625 3.50390625 C-1 1 -1 1 0 0 Z " fill="#D67354" transform="translate(170,225)"/>
<path d="M0 0 C-4.5 4 -4.5 4 -9 4 C-9 3.34 -9 2.68 -9 2 C-8.01 2 -7.02 2 -6 2 C-6 1.34 -6 0.68 -6 0 C-3.50907189 -1.24546405 -2.58919267 -0.7767578 0 0 Z " fill="#D8594B" transform="translate(317,187)"/>
<path d="M0 0 C8.57142857 -0.14285714 8.57142857 -0.14285714 12 1 C12 1.66 12 2.32 12 3 C10.56163249 2.88541307 9.12429034 2.75790884 7.6875 2.625 C6.88699219 2.55539063 6.08648437 2.48578125 5.26171875 2.4140625 C3 2 3 2 0 0 Z " fill="#D4665B" transform="translate(249,187)"/>
<path d="M0 0 C0.66 0 1.32 0 2 0 C1.25 6.625 1.25 6.625 -1 10 C-1.66 10 -2.32 10 -3 10 C-2.39009109 6.44219804 -1.4216319 3.3171411 0 0 Z " fill="#F9DFDF" transform="translate(304,93)"/>
<path d="M0 0 C0.33 0.66 0.66 1.32 1 2 C-0.5224249 5.57769851 -2.02930459 8.45368965 -5 11 C-5.66 10.67 -6.32 10.34 -7 10 C-3.535 5.05 -3.535 5.05 0 0 Z " fill="#FCE8D5" transform="translate(167,348)"/>
<path d="M0 0 C1 3 1 3 -0.1875 6.125 C-2 9 -2 9 -4.1875 9.875 C-5.0846875 9.936875 -5.0846875 9.936875 -6 10 C-4.34832443 6.4213696 -2.21713508 3.25179812 0 0 Z " fill="#FAE5D2" transform="translate(174,338)"/>
<path d="M0 0 C-1 3 -1 3 -2.77734375 4.203125 C-3.49019531 4.54859375 -4.20304687 4.8940625 -4.9375 5.25 C-6.00291016 5.78367187 -6.00291016 5.78367187 -7.08984375 6.328125 C-8.03537109 6.66070312 -8.03537109 6.66070312 -9 7 C-9.66 6.67 -10.32 6.34 -11 6 C-9.54550599 4.9944239 -8.08627557 3.99569565 -6.625 3 C-5.40683594 2.1646875 -5.40683594 2.1646875 -4.1640625 1.3125 C-2 0 -2 0 0 0 Z " fill="#D79856" transform="translate(104,336)"/>
<path d="M0 0 C0 0.66 0 1.32 0 2 C-0.66 2 -1.32 2 -2 2 C-1.67 2.99 -1.34 3.98 -1 5 C-3.31 5 -5.62 5 -8 5 C-3.16129032 0 -3.16129032 0 0 0 Z " fill="#DC8A55" transform="translate(151,306)"/>
<path d="M0 0 C9.41002278 0.96355353 9.41002278 0.96355353 14 2 C14 2.33 14 2.66 14 3 C12.41753293 3.08153933 10.83383727 3.13943557 9.25 3.1875 C8.36828125 3.22230469 7.4865625 3.25710937 6.578125 3.29296875 C3.55328417 2.94923684 2.24416398 1.99772541 0 0 Z " fill="#FBE4E0" transform="translate(247,188)"/>
<path d="M0 0 C3.68006822 3.38168431 5.9785845 6.42521756 8 11 C6.1875 10.9375 6.1875 10.9375 4 10 C2.36061154 6.72122308 1.15761401 3.47284204 0 0 Z " fill="#D3685A" transform="translate(172,161)"/>
<path d="M0 0 C0.66 0 1.32 0 2 0 C3.06775224 1.96466413 4.06553465 3.96855359 5 6 C4.67 6.66 4.34 7.32 4 8 C2.35 6.35 0.7 4.7 -1 3 C-0.67 2.01 -0.34 1.02 0 0 Z " fill="#FADBDD" transform="translate(157,96)"/>
<path d="M0 0 C1.98 0.495 1.98 0.495 4 1 C2.68 3.31 1.36 5.62 0 8 C-0.33 8 -0.66 8 -1 8 C-1.125 2.25 -1.125 2.25 0 0 Z " fill="#F9F0E3" transform="translate(170,371)"/>
<path d="M0 0 C1 2 1 2 1 5 C0.67 5.66 0.34 6.32 0 7 C-0.66 7 -1.32 7 -2 7 C-2.33 7.66 -2.66 8.32 -3 9 C-3.1875 5.625 -3.1875 5.625 -3 2 C-2.01 1.34 -1.02 0.68 0 0 Z " fill="#E57737" transform="translate(207,313)"/>
<path d="M0 0 C-1.4562545 0.67119549 -2.91507867 1.33681807 -4.375 2 C-5.59316406 2.556875 -5.59316406 2.556875 -6.8359375 3.125 C-9 4 -9 4 -11 4 C-11 3.34 -11 2.68 -11 2 C-7.54930647 -0.30046235 -3.95022851 -1.97511426 0 0 Z " fill="#DA8E57" transform="translate(108,309)"/>
<path d="M0 0 C0.99 0.33 1.98 0.66 3 1 C3.8125 2.9375 3.8125 2.9375 4 5 C3.34 5.66 2.68 6.32 2 7 C2 6.34 2 5.68 2 5 C0.68 4.34 -0.64 3.68 -2 3 C-1.34 2.01 -0.68 1.02 0 0 Z " fill="#E2763A" transform="translate(190,298)"/>
<path d="M0 0 C4.54805635 -0.17835515 7.8794254 0.00214565 12 2 C12 2.66 12 3.32 12 4 C6.06 2.515 6.06 2.515 0 1 C0 0.67 0 0.34 0 0 Z " fill="#FCDFD7" transform="translate(254,225)"/>
<path d="M0 0 C2.64 0.66 5.28 1.32 8 2 C8.33 3.65 8.66 5.3 9 7 C7.4972763 6.02501855 5.99788037 5.04490611 4.5 4.0625 C3.6646875 3.51722656 2.829375 2.97195312 1.96875 2.41015625 C1.3190625 1.94480469 0.669375 1.47945313 0 1 C0 0.67 0 0.34 0 0 Z " fill="#F9DDD9" transform="translate(342,112)"/>
<path d="M0 0 C2.31 0 4.62 0 7 0 C4.3534665 2.6465335 1.43778736 3.59941997 -2 5 C-1.34 3.35 -0.68 1.7 0 0 Z " fill="#DD804F" transform="translate(206,310)"/>
<path d="M0 0 C-0.625 1.9375 -0.625 1.9375 -2 4 C-5.125 4.75 -5.125 4.75 -8 5 C-3.16129032 0 -3.16129032 0 0 0 Z " fill="#D88857" transform="translate(159,301)"/>
<path d="M0 0 C0.99 0 1.98 0 3 0 C3.33 1.98 3.66 3.96 4 6 C2.68 5.67 1.36 5.34 0 5 C0 3.35 0 1.7 0 0 Z " fill="#E13F3B" transform="translate(283,257)"/>
<path d="M0 0 C0.66 0 1.32 0 2 0 C1.34 1.98 0.68 3.96 0 6 C-1.65 6.33 -3.3 6.66 -5 7 C-4.21654285 5.82780457 -3.42297164 4.66236332 -2.625 3.5 C-2.18414062 2.8503125 -1.74328125 2.200625 -1.2890625 1.53125 C-0.65097656 0.77328125 -0.65097656 0.77328125 0 0 Z " fill="#FDEAE0" transform="translate(188,203)"/>
<path d="M0 0 C0.99 0.33 1.98 0.66 3 1 C2.34 2.32 1.68 3.64 1 5 C0.34 5 -0.32 5 -1 5 C-1.33 5.66 -1.66 6.32 -2 7 C-2.125 4.625 -2.125 4.625 -2 2 C-1.34 1.34 -0.68 0.68 0 0 Z " fill="#DC6A57" transform="translate(189,198)"/>
<path d="M0 0 C0.95465783 2.16967689 1.14401212 3.56328793 0.3984375 5.82421875 C-0.35870385 7.5684743 -1.17609198 9.28627131 -2 11 C-2.66 11 -3.32 11 -4 11 C-3.52269162 9.5410574 -3.04308958 8.08286504 -2.5625 6.625 C-2.29566406 5.81289062 -2.02882813 5.00078125 -1.75390625 4.1640625 C-1 2 -1 2 0 0 Z " fill="#FDDFDD" transform="translate(283,140)"/>
<path d="M0 0 C3.36591866 1.44253657 5.51047079 3.33264727 8 6 C4.65750371 5.40312566 2.53563658 4.26396123 0 2 C0 1.34 0 0.68 0 0 Z " fill="#F9EBD6" transform="translate(119,379)"/>
<path d="M0 0 C0.66 0.33 1.32 0.66 2 1 C1.34 2.32 0.68 3.64 0 5 C-1.98 5 -3.96 5 -6 5 C-4.06745228 2.9754262 -2.36841312 1.57894208 0 0 Z " fill="#DC9355" transform="translate(116,327)"/>
<path d="M0 0 C0.66 0.66 1.32 1.32 2 2 C0.02 4.97 0.02 4.97 -2 8 C-2.6875 6.25 -2.6875 6.25 -3 4 C-1.5625 1.75 -1.5625 1.75 0 0 Z " fill="#D98350" transform="translate(189,313)"/>
<path d="M0 0 C-0.33 0.99 -0.66 1.98 -1 3 C-3.97 3 -6.94 3 -10 3 C-4 0 -4 0 0 0 Z " fill="#FAE7D5" transform="translate(263,281)"/>
<path d="M0 0 C2.33944736 0.28730055 4.6739143 0.61936779 7 1 C7 1.99 7 2.98 7 4 C3.62537285 3.45276317 1.91765 2.9451 -1 1 C-0.67 0.67 -0.34 0.34 0 0 Z " fill="#FAF5F7" transform="translate(218,250)"/>
<path d="M0 0 C4.455 0.99 4.455 0.99 9 2 C9 3.32 9 4.64 9 6 C5.88802644 4.50164236 2.91164984 2.86022073 0 1 C0 0.67 0 0.34 0 0 Z " fill="#D96F5E" transform="translate(155,198)"/>
<path d="M0 0 C0.66 0 1.32 0 2 0 C1.67 0.66 1.34 1.32 1 2 C0.67 1.34 0.34 0.68 0 0 Z M-1 1 C-0.67 1.99 -0.34 2.98 0 4 C0.66 4 1.32 4 2 4 C1.67 4.99 1.34 5.98 1 7 C-0.65 5.35 -2.3 3.7 -4 2 C-3.01 1.67 -2.02 1.34 -1 1 Z " fill="#DB614C" transform="translate(277,193)"/>
<path d="M0 0 C0.99 0.33 1.98 0.66 3 1 C4.1875 4.5625 4.1875 4.5625 5 8 C4.01 8.495 4.01 8.495 3 9 C0 3.375 0 3.375 0 0 Z " fill="#DE5C46" transform="translate(185,182)"/>
<path d="M0 0 C-0.99 1.485 -0.99 1.485 -2 3 C-4.86724686 2.42655063 -5.8614515 2.1385485 -8 0 C-2.25 -1.125 -2.25 -1.125 0 0 Z " fill="#F13638" transform="translate(178,91)"/>
<path d="M0 0 C1.125 3.75 1.125 3.75 0 6 C-2.475 5.01 -2.475 5.01 -5 4 C-4.0409375 3.8453125 -4.0409375 3.8453125 -3.0625 3.6875 C-2.381875 3.460625 -1.70125 3.23375 -1 3 C-0.67 2.01 -0.34 1.02 0 0 Z " fill="#D9A559" transform="translate(138,385)"/>
<path d="M0 0 C0.66 0 1.32 0 2 0 C2 0.99 2 1.98 2 3 C1.01 3 0.02 3 -1 3 C-1 4.98 -1 6.96 -1 9 C-1.66 8.67 -2.32 8.34 -3 8 C-1.125 1.125 -1.125 1.125 0 0 Z " fill="#E69530" transform="translate(148,368)"/>
<path d="M0 0 C-1 3 -1 3 -4.0625 4.6875 C-5.031875 5.120625 -6.00125 5.55375 -7 6 C-6.75 4.125 -6.75 4.125 -6 2 C-3.85331506 0.61504198 -2.56128588 0 0 0 Z " fill="#FDEDDF" transform="translate(130,317)"/>
<path d="M0 0 C1.32 0.99 2.64 1.98 4 3 C0.535 4.485 0.535 4.485 -3 6 C-2.67 4.68 -2.34 3.36 -2 2 C-1.34 2 -0.68 2 0 2 C0 1.34 0 0.68 0 0 Z " fill="#FBEBE3" transform="translate(171,288)"/>
<path d="M0 0 C0.66 0 1.32 0 2 0 C2.33 1.32 2.66 2.64 3 4 C1.68 4 0.36 4 -1 4 C-1.33 5.32 -1.66 6.64 -2 8 C-2.33 7.34 -2.66 6.68 -3 6 C-2.06553465 3.96855359 -1.06775224 1.96466413 0 0 Z " fill="#E25A3B" transform="translate(76,179)"/>
<path d="M0 0 C2.97 0.495 2.97 0.495 6 1 C6 2.65 6 4.3 6 6 C2.26360784 4.75453595 1.81243487 3.36595047 0 0 Z " fill="#DD5A42" transform="translate(104,161)"/>
<path d="M0 0 C1.98 0 3.96 0 6 0 C5.01 0.66 4.02 1.32 3 2 C2.319375 2.53625 1.63875 3.0725 0.9375 3.625 C-1 5 -1 5 -3 5 C-3 4.34 -3 3.68 -3 3 C-2.34 3 -1.68 3 -1 3 C-0.67 2.01 -0.34 1.02 0 0 Z " fill="#FDEAEE" transform="translate(158,92)"/>
</svg>
